<?xml version="1.0" encoding="UTF-8" standalone="no"?>
<!-- Created with Inkscape (http://www.inkscape.org/) -->

<svg
   width="158.04898mm"
   height="119.40048mm"
   viewBox="0 0 158.04898 119.40048"
   version="1.1"
   id="svg5"
   sodipodi:docname="shameless_plug.svg"
   inkscape:version="1.1.1 (3bf5ae0d25, 2021-09-20)"
   xmlns:inkscape="http://www.inkscape.org/namespaces/inkscape"
   xmlns:sodipodi="http://sodipodi.sourceforge.net/DTD/sodipodi-0.dtd"
   xmlns="http://www.w3.org/2000/svg"
   xmlns:svg="http://www.w3.org/2000/svg">
  <sodipodi:namedview
     id="namedview7"
     pagecolor="#ffffff"
     bordercolor="#666666"
     borderopacity="1.0"
     inkscape:pageshadow="2"
     inkscape:pageopacity="0.0"
     inkscape:pagecheckerboard="true"
     inkscape:document-units="mm"
     showgrid="false"
     inkscape:zoom="2.041835"
     inkscape:cx="402.0893"
     inkscape:cy="320.30012"
     inkscape:window-width="2560"
     inkscape:window-height="1371"
     inkscape:window-x="0"
     inkscape:window-y="32"
     inkscape:window-maximized="1"
     inkscape:current-layer="g1518"
     inkscape:snap-global="true"
     fit-margin-top="5"
     fit-margin-left="5"
     fit-margin-right="5"
     fit-margin-bottom="5"
     lock-margins="false" />
  <defs
     id="defs2" />
  <g
     inkscape:label="Layer 1"
     inkscape:groupmode="layer"
     id="layer1"
     transform="translate(-23.136079,-14.023426)">
    <g
       id="g1518"
       transform="translate(25.61916,8.0274623)">
      <path
         id="path884"
         style="fill:#ff00ff;fill-opacity:1;stroke:none;stroke-width:0.794356;stroke-linecap:round;stroke-linejoin:round;stroke-miterlimit:4;stroke-dasharray:none"
         d="M 78.818359,8.3574219 C 61.867275,8.5914604 45.173083,16.777991 34.758769,30.182107 27.193853,39.800168 22.746858,51.867579 22.447266,64.113281 c -3.445326,1.871983 -6.387625,5.29707 -6.572868,9.353905 -0.02625,1.22218 0.312827,2.438009 0.902946,3.503517 -5.833865,-1.689793 -12.4174092,1.447559 -15.2951474,6.685049 -1.35508626,2.358363 -1.81589096,5.136975 -1.55019953,7.826276 0.17313642,3.755286 0.9375496,7.79842 3.68562923,10.568872 2.5040073,2.52786 6.6745147,3.48679 9.8687017,1.71863 1.587473,-0.79275 3.176023,-2.26662 5.085938,-1.78515 3.233838,0.79575 5.757748,3.24035 8.985714,4.06912 3.534797,1.11061 7.54699,1.04556 10.875614,-0.68436 0.865674,1.09706 1.985475,1.97908 2.985359,2.95849 12.07797,10.86333 28.904089,16.34034 45.056458,14.31284 15.269639,-1.79679 29.749659,-9.94264 38.955999,-22.29729 5.04864,-6.675338 8.60976,-14.464486 10.39281,-22.640055 2.19147,1.657266 5.14246,2.052617 7.7558,1.305815 4.31604,-1.097444 7.93711,-5.003988 8.13103,-9.542671 0.20131,-2.898457 -0.81187,-5.944854 -2.97277,-7.936972 1.48077,-0.569854 3.41548,-1.119884 3.86945,-2.857819 0.41562,-1.568668 0.21135,-3.288069 -0.36667,-4.786621 -1.16913,-2.599444 -4.23408,-4.076506 -7.0059,-3.491998 -3.23217,0.368605 -6.23575,2.038955 -8.46172,4.380579 -0.46589,-0.717093 -1.18894,-1.293067 -1.20984,-2.213862 C 131.88121,36.54165 120.89655,22.362034 106.25857,14.867078 97.835596,10.48129 88.318812,8.1857205 78.818359,8.3574219 Z m 0.955079,19.5742191 c 2.834539,0.03371 5.676588,0.308196 8.433593,0.984375 -1.275244,2.300867 -2.498978,4.631943 -3.799953,6.920907 -1.105939,2.074976 -2.381647,4.078178 -3.276219,6.254874 -0.37349,1.352792 -0.593338,2.667858 -0.917968,4.003906 -0.200595,1.626729 1.142471,3.067794 0.728515,4.685547 -0.904324,1.453788 -1.809426,2.955552 -2.148437,4.652344 -0.32758,0.661812 -0.810555,1.304538 -0.81836,2.068359 -0.871057,0.09909 -1.711626,0.465538 -2.291015,1.148438 -1.246046,-0.836226 -2.797809,-0.458628 -4.121835,-0.06079 -1.682609,0.403374 -3.45231,0.525059 -5.078855,1.107998 -1.581562,0.979417 -1.468507,3.025596 -1.825841,4.626821 l -0.567219,3.107221 c -0.121457,-2.073981 -0.118832,-4.164626 -0.306514,-6.228464 -0.481906,-1.79021 -2.7528,-2.681571 -4.367963,-1.834616 -2.594696,0.769204 -5.311882,1.038958 -7.901695,1.815033 -0.449266,0.03908 -0.811869,1.132492 -1.072129,0.531637 -0.788178,-1.131387 -2.355894,-1.619905 -3.628923,-1.05641 -1.552317,0.363021 -3.220487,0.408743 -4.636839,1.212273 0.789025,-7.262272 3.610434,-14.175199 8.185811,-19.869646 5.072822,-6.346014 12.266013,-10.911887 20.111981,-12.887244 3.0546,-0.782472 6.148711,-1.174032 9.299865,-1.182563 z M 112.89258,47.59375 c 1.05589,1.952852 1.95421,3.992029 2.6543,6.099609 -2.06434,0.426786 -4.1944,0.675558 -6.18648,1.36532 -1.54775,0.915698 -1.5033,2.909525 -1.59424,4.482548 -0.34983,4.587422 -0.68537,9.175955 -1.05913,13.761507 -0.50322,-0.08218 -1.07639,0.02741 -0.789,-0.681826 0.42942,-5.169129 1.18423,-10.330307 1.68511,-15.50587 -0.0207,-0.533078 -0.25417,-1.04532 -0.59337,-1.450976 1.97459,-2.726005 3.92035,-5.474808 5.75585,-8.296874 0.0423,0.07552 0.0846,0.151041 0.12696,0.226562 z m 0.93164,34.398441 c -4.23318,8.875481 -12.07489,15.999714 -21.337377,19.255999 -8.744909,3.13995 -18.530817,2.88599 -27.131374,-0.65835 -1.807541,-0.742966 -3.615545,-1.657128 -5.304688,-2.707025 4.555952,-2.696931 7.954351,-6.84271 11.664063,-10.53125 0.457864,-0.567366 0.986928,-1.202663 1.797413,-1.127383 1.043687,-0.134687 2.165193,-0.307133 2.981884,-1.03082 1.578202,0.990485 3.400529,0.05438 4.992594,-0.379116 0.703107,-0.20088 1.40787,-0.397597 2.099203,-0.636509 1.103166,1.252817 3.016128,1.186905 4.425596,0.545852 2.588242,-0.70687 5.198037,-1.335187 7.767763,-2.106398 0.921328,1.420135 2.952503,1.481204 4.340753,0.763919 2.25635,-0.82905 4.65936,-1.151224 7.03034,-1.437748 1.23781,1.164056 3.06927,0.696343 4.49273,0.199071 0.79539,-0.219426 1.59335,-0.421222 2.40376,-0.630711 -0.0742,0.160156 -0.14844,0.320312 -0.22266,0.480469 z M 12.097656,87.816409 c 2.235455,0.31524 3.850579,2.097281 5.927611,2.838856 2.459633,1.231036 5.36045,2.00069 8.059237,1.100717 0.760477,-0.205333 1.496882,-0.497469 2.200652,-0.849729 0.906246,1.965001 2.112703,3.947831 3.175782,5.714844 -2.235491,-0.57723 -4.174359,-1.904843 -6.290446,-2.789621 -3.500764,-1.602797 -7.552001,-2.49093 -11.322893,-1.325272 -1.222445,0.344956 -2.392857,0.861117 -3.494083,1.491846 C 9.9519141,92.347728 9.8446296,90.623238 9.9042969,88.933594 10.117774,87.921203 11.227157,87.723927 12.097656,87.816406 Z"
         sodipodi:nodetypes="ccccccccccccccccccccccccccccccccccccccccccccccccccccccccccccccccccccccccccsccccccccss" />
      <g
         id="g12546"
         transform="matrix(0.55946839,0,0,0.55946839,-22.424047,-23.090943)">
        <path
           id="path12160"
           style="fill:#f9f9f9;fill-opacity:1;stroke:none;stroke-width:5.36632;stroke-linecap:round;stroke-linejoin:round;stroke-miterlimit:4;stroke-dasharray:none"
           d="M 786.50195,267.58398 A 362.51555,362.85619 0 0 0 423.98633,630.43945 362.51555,362.85619 0 0 0 786.50195,993.29688 362.51555,362.85619 0 0 0 1149.0176,630.43945 362.51555,362.85619 0 0 0 786.50195,267.58398 Z m 0.33399,82.5625 A 281.40764,280.11581 0 0 1 1068.2441,630.26172 281.40764,280.11581 0 0 1 786.83594,910.37695 281.40764,280.11581 0 0 1 505.42773,630.26172 281.40764,280.11581 0 0 1 786.83594,350.14648 Z"
           transform="matrix(0.26458333,0,0,0.26458333,-25.61916,-8.0274623)" />
        <g
           id="g104767"
           transform="matrix(0.74067279,-0.21060307,0.21060307,0.74067279,-145.76838,142.80927)"
           style="fill:#000000">
          <path
             style="color:#000000;fill:#000000;stroke:none;stroke-linecap:round;stroke-linejoin:round;-inkscape-stroke:none"
             d="m 404.5957,9.5527344 c -70.07943,0 -126.94531,56.8639276 -126.94531,126.9433556 0,70.07944 56.86588,126.94336 126.94531,126.94336 70.07943,0 126.94336,-56.86392 126.94336,-126.94336 0,-70.079428 -56.86393,-126.9433556 -126.94336,-126.9433556 z m 0,4.9999996 c 67.37724,0 121.94336,54.566126 121.94336,121.943356 0,67.37724 -54.56612,121.94336 -121.94336,121.94336 -67.37723,0 -121.94531,-54.56612 -121.94531,-121.94336 0,-67.37723 54.56808,-121.943356 121.94531,-121.943356 z"
             id="path20149" />
          <path
             d="m 510.06563,153.55025 q -2.46148,-0.86133 -3.53732,-2.6345 -1.07584,-1.77317 -0.83193,-4.58466 0.35737,-4.11916 2.83199,-6.3199 2.48458,-2.18891 6.37489,-1.85139 3.90122,0.33846 5.9608,2.9216 2.06953,2.59499 1.71216,6.71415 -0.12574,1.44934 -0.61059,2.98829 -0.48485,1.53895 -1.34539,3.23195 l -3.99929,-0.34697 0.12007,-1.38395 q 2.08555,-0.24725 3.19638,-1.28175 1.12172,-1.03354 1.28149,-2.87518 0.2061,-2.3756 -1.44814,-3.68292 -1.64334,-1.30637 -5.27213,-1.6212 -3.62878,-0.31483 -5.47256,0.68902 -1.84377,1.00384 -2.05176,3.40123 -0.14087,1.62369 0.67473,2.7265 0.81466,1.11371 2.60474,1.74112 z"
             style="font-weight:bold;font-size:22.4014px;line-height:1.25;font-family:'DejaVu Serif';-inkscape-font-specification:'DejaVu Serif, Bold';fill:#000000;stroke:none;stroke-width:0.264583"
             id="path104182" />
          <path
             d="m 505.02281,155.33365 1.27967,0.33786 -0.53332,2.01998 13.2303,3.4931 0.53332,-2.01997 1.27967,0.33786 -3.7472,14.1927 -3.72267,-0.98287 0.38533,-1.45946 2.27379,0.60033 1.75353,-6.64159 -5.0658,-1.33749 -1.09177,4.13514 2.0094,0.53052 -0.38254,1.44889 -5.4571,-1.44081 0.38254,-1.44888 2.0094,0.53053 1.09177,-4.13513 -6.38778,-1.68652 -1.80658,6.84253 2.27379,0.60034 -0.38254,1.44888 -3.72267,-0.98287 z"
             style="font-weight:bold;font-size:22.4014px;line-height:1.25;font-family:'DejaVu Serif';-inkscape-font-specification:'DejaVu Serif, Bold';fill:#000000;stroke:none;stroke-width:0.264583"
             id="path104184" />
          <path
             d="m 503.2191,185.02306 q -0.53715,0.82425 -1.27365,1.21913 -0.7365,0.39488 -1.80681,0.44289 l -5.13076,0.25763 -0.70148,1.51943 -1.20164,-0.55477 2.25117,-4.87607 5.57004,-0.29578 q 1.70668,-0.0434 2.30871,-0.35574 0.60738,-0.29787 1.00168,-1.15193 l 0.27968,-0.60579 -5.43221,-2.50792 -0.88029,1.90673 -1.20164,-0.55477 3.52118,-7.62693 1.20164,0.55477 -0.87571,1.8968 12.42356,5.73567 0.87571,-1.8968 1.20164,0.55477 -3.90631,8.46113 q -1.19207,2.58203 -2.88128,3.50088 -1.68386,0.93336 -3.5906,0.0531 -1.54922,-0.71524 -1.98986,-2.13549 -0.43529,-1.40573 0.23723,-3.54091 z m 2.48865,-3.85081 -0.60062,1.30095 q -0.64188,1.39032 -0.231,2.48359 0.4063,1.1032 1.80656,1.74966 1.40025,0.64647 2.49352,0.23559 1.08868,-0.40095 1.73056,-1.79128 l 0.60062,-1.30095 z"
             style="font-weight:bold;font-size:22.4014px;line-height:1.25;font-family:'DejaVu Serif';-inkscape-font-specification:'DejaVu Serif, Bold';fill:#000000;stroke:none;stroke-width:0.264583"
             id="path104186" />
          <path
             d="m 490.93884,190.77362 1.08936,0.75167 -1.23001,1.78258 11.11861,7.67204 2.54078,-3.6822 -2.12469,-1.46607 0.85107,-1.2334 3.35809,2.31714 -9.19402,13.32433 -3.35809,-2.31714 0.83864,-1.21539 2.12469,1.46607 2.55942,-3.70921 -11.11862,-7.67203 -1.23622,1.79158 -1.08935,-0.75168 z"
             style="font-weight:bold;font-size:22.4014px;line-height:1.25;font-family:'DejaVu Serif';-inkscape-font-specification:'DejaVu Serif, Bold';fill:#000000;stroke:none;stroke-width:0.264583"
             id="path104188" />
          <path
             d="m 482.89686,201.8194 0.98035,0.88918 -1.40358,1.54748 10.13561,9.19305 1.40358,-1.54748 0.98034,0.88917 -5.6437,6.22235 -0.98034,-0.88918 1.41093,-1.55559 -10.13561,-9.19305 -1.41093,1.55559 -0.98034,-0.88918 z"
             style="font-weight:bold;font-size:22.4014px;line-height:1.25;font-family:'DejaVu Serif';-inkscape-font-specification:'DejaVu Serif, Bold';fill:#000000;stroke:none;stroke-width:0.264583"
             id="path104190" />
          <path
             d="m 475.87137,209.62224 0.8581,1.00766 -1.59061,1.35451 8.87171,10.41804 1.5906,-1.35451 0.8581,1.00766 -11.08426,9.43904 -2.49628,-2.93137 1.14091,-0.97156 1.52471,1.79047 5.12991,-4.36849 -3.39692,-3.989 -3.15623,2.68775 1.34742,1.58228 -1.1409,0.97156 -3.65931,-4.29713 1.1409,-0.97156 1.34742,1.58228 3.15623,-2.68775 -4.39685,-5.16322 -1.95703,1.66655 -0.85809,-1.00766 z"
             style="font-weight:bold;font-size:22.4014px;line-height:1.25;font-family:'DejaVu Serif';-inkscape-font-specification:'DejaVu Serif, Bold';fill:#000000;stroke:none;stroke-width:0.264583"
             id="path104192" />
          <path
             d="m 463.56313,219.69653 0.72133,1.10968 -1.75165,1.13862 7.45769,11.47283 1.75164,-1.13862 0.72133,1.10968 -7.04327,4.57834 -0.72133,-1.10969 1.76082,-1.14458 -7.45768,-11.47283 -1.76082,1.14459 -0.72133,-1.10968 z"
             style="font-weight:bold;font-size:22.4014px;line-height:1.25;font-family:'DejaVu Serif';-inkscape-font-specification:'DejaVu Serif, Bold';fill:#000000;stroke:none;stroke-width:0.264583"
             id="path104194" />
          <path
             d="m 454.79911,225.48983 0.56483,1.19695 -1.88939,0.89159 5.83972,12.37499 1.88939,-0.89159 0.56483,1.19694 -13.27517,6.26451 -1.64315,-3.48201 1.36511,-0.64419 1.00363,2.1268 6.21222,-2.93153 -2.23599,-4.73831 -3.8678,1.8252 0.88693,1.8795 -1.35522,0.63952 -2.40871,-5.10431 1.35522,-0.63952 0.88693,1.87949 3.8678,-1.8252 -2.8195,-5.97482 -6.40017,3.02022 1.00363,2.1268 -1.35522,0.63952 -1.64315,-3.48201 z"
             style="font-weight:bold;font-size:22.4014px;line-height:1.25;font-family:'DejaVu Serif';-inkscape-font-specification:'DejaVu Serif, Bold';fill:#000000;stroke:none;stroke-width:0.264583"
             id="path104196" />
          <path
             d="m 433.53625,235.61858 -1.46907,0.39175 q -2.47312,0.65948 -3.19181,2.54919 -0.72926,1.89252 0.19232,5.34854 0.91595,3.43489 2.47732,4.70527 1.56418,1.28095 4.04787,0.61865 l 1.46907,-0.39174 z m 5.74665,-2.90218 0.34102,1.27884 -2.01865,0.53829 3.5257,13.22166 2.01865,-0.5383 0.34101,1.27884 -8.09575,2.15882 q -4.24868,1.13296 -7.04097,-0.29597 -2.79228,-1.42892 -3.80969,-5.24428 -1.02305,-3.8365 0.69476,-6.47941 1.71005,-2.62952 5.94817,-3.75966 z"
             style="font-weight:bold;font-size:22.4014px;line-height:1.25;font-family:'DejaVu Serif';-inkscape-font-specification:'DejaVu Serif, Bold';fill:#000000;stroke:none;stroke-width:0.264583"
             id="path104198" />
          <path
             d="m 411.97761,239.10015 0.038,3.87193 -1.38909,0.0136 q -0.33523,-1.83441 -1.52541,-2.73064 -1.19018,-0.89623 -3.27927,-0.87572 -1.69534,0.0166 -2.57495,0.67067 -0.87962,0.65402 -0.86737,1.90091 0.01,0.98439 0.6166,1.52537 0.60694,0.54097 2.49284,0.99282 l 2.45594,0.57752 q 2.40136,0.58899 3.38544,1.66226 0.98419,1.08421 1.00395,3.09673 0.0238,2.42816 -1.57079,3.78928 -1.60545,1.37216 -4.51487,1.40073 -1.43283,0.0141 -2.9774,-0.21142 -1.55551,-0.22538 -3.22276,-0.69031 l -0.0354,-3.60943 1.38908,-0.0136 q 0.33373,1.68129 1.41325,2.44734 1.07962,0.77698 3.05933,0.75755 1.61878,-0.0159 2.44446,-0.59282 0.81484,-0.56587 0.80389,-1.68151 -0.01,-1.0172 -0.58401,-1.54756 -0.57391,-0.51943 -2.79984,-1.06639 l -2.45594,-0.57751 q -2.28062,-0.54642 -3.30963,-1.73958 -1.03996,-1.19305 -1.06068,-3.30401 -0.0243,-2.47191 1.66933,-3.77931 1.69371,-1.29646 5.00782,-1.329 1.5969,-0.0157 3.17461,0.2423 1.5777,0.25798 3.21289,0.7998 z"
             style="font-weight:bold;font-size:22.4014px;line-height:1.25;font-family:'DejaVu Serif';-inkscape-font-specification:'DejaVu Serif, Bold';fill:#000000;stroke:none;stroke-width:0.264583"
             id="path104200" />
          <path
             d="m 396.41549,238.50443 -0.22686,1.30394 -2.05827,-0.3581 -2.34542,13.48117 2.05827,0.35809 -0.22685,1.30393 -8.27621,-1.43987 0.22686,-1.30393 2.06905,0.35997 0.94117,-5.40971 -6.40113,-1.11365 -0.94117,5.4097 2.05828,0.3581 -0.22686,1.30393 -8.2762,-1.43987 0.22685,-1.30394 2.06905,0.35997 2.34542,-13.48116 -2.06905,-0.35997 0.22685,-1.30393 8.27621,1.43987 -0.22686,1.30393 -2.05827,-0.35809 -1.1474,6.5951 6.40113,1.11365 1.1474,-6.5951 -2.06905,-0.35997 0.22685,-1.30393 z"
             style="font-weight:bold;font-size:22.4014px;line-height:1.25;font-family:'DejaVu Serif';-inkscape-font-specification:'DejaVu Serif, Bold';fill:#000000;stroke:none;stroke-width:0.264583"
             id="path104202" />
          <path
             d="m 376.75259,234.93201 -0.46942,1.23747 -1.24771,-0.4733 -11.07034,11.85124 -2.44427,-0.92721 -0.43511,-16.21573 -1.45225,-0.55089 0.46943,-1.23748 7.14872,2.7118 -0.46942,1.23748 -1.49316,-0.56641 0.0747,3.59644 5.73739,2.17642 2.46165,-2.63432 -1.82042,-0.69055 0.46942,-1.23748 z m -6.62202,3.88721 -4.73513,-1.79623 0.13701,6.73195 z"
             style="font-weight:bold;font-size:22.4014px;line-height:1.25;font-family:'DejaVu Serif';-inkscape-font-specification:'DejaVu Serif, Bold';fill:#000000;stroke:none;stroke-width:0.264583"
             id="path104204" />
          <path
             d="m 359.30781,228.50273 -0.71444,1.11413 -1.74946,-1.12185 -7.38647,11.5188 1.74946,1.12185 -0.71444,1.11413 -5.67193,-3.63715 1.734,-11.33625 -9.59735,6.29384 -5.66272,-3.63124 0.71444,-1.11412 1.75866,1.12775 7.38648,-11.5188 -1.75867,-1.12775 0.71444,-1.11413 7.07149,4.53462 -0.71443,1.11413 -1.74946,-1.12185 -6.72518,10.48754 10.40969,-6.85142 2.32954,1.49383 -1.9018,12.30714 6.72518,-10.48754 -1.74946,-1.12185 0.71444,-1.11413 z"
             style="font-weight:bold;font-size:22.4014px;line-height:1.25;font-family:'DejaVu Serif';-inkscape-font-specification:'DejaVu Serif, Bold';fill:#000000;stroke:none;stroke-width:0.264583"
             id="path104206" />
          <path
             d="m 338.66603,214.53388 -0.926,0.94564 -1.4927,-1.46169 -9.57373,9.77684 1.49271,1.46169 -0.92599,0.94564 -10.48803,-10.27013 2.69381,-2.75096 1.0785,1.0561 -1.64537,1.68027 4.90796,4.80599 3.66572,-3.74349 -3.05575,-2.99226 -1.45405,1.48489 -1.07068,-1.04844 3.94887,-4.03266 1.07069,1.04845 -1.45404,1.48489 3.05575,2.99226 4.62232,-4.72039 -5.05645,-4.9514 -1.64536,1.68028 -1.07069,-1.04845 2.69381,-2.75095 z"
             style="font-weight:bold;font-size:22.4014px;line-height:1.25;font-family:'DejaVu Serif';-inkscape-font-specification:'DejaVu Serif, Bold';fill:#000000;stroke:none;stroke-width:0.264583"
             id="path104208" />
          <path
             d="m 326.60959,202.41673 -1.06503,0.78576 -1.24032,-1.68117 -11.01121,8.1238 1.24033,1.68117 -1.06504,0.78576 -4.98727,-6.75988 1.06503,-0.78575 1.24682,1.68996 10.87037,-8.0199 -3.81838,-5.17553 -2.07725,1.53255 -0.87667,-1.18826 3.28312,-2.4222 z"
             style="font-weight:bold;font-size:22.4014px;line-height:1.25;font-family:'DejaVu Serif';-inkscape-font-specification:'DejaVu Serif, Bold';fill:#000000;stroke:none;stroke-width:0.264583"
             id="path104210" />
          <path
             d="m 317.33615,189.65193 -1.17726,0.60478 -0.95466,-1.85832 -12.17151,6.25277 0.95466,1.85832 -1.17726,0.60478 -6.7076,-13.05689 3.42475,-1.75937 0.68976,1.34266 -2.09183,1.07462 3.13888,6.11007 4.66039,-2.39414 -1.9543,-3.8042 -1.84859,0.94966 -0.68475,-1.33294 5.02038,-2.57907 0.68476,1.33293 -1.8486,0.94966 1.95431,3.8042 5.87657,-3.01892 -3.23384,-6.29493 -2.09183,1.07461 -0.68476,-1.33293 3.42476,-1.75937 z"
             style="font-weight:bold;font-size:22.4014px;line-height:1.25;font-family:'DejaVu Serif';-inkscape-font-specification:'DejaVu Serif, Bold';fill:#000000;stroke:none;stroke-width:0.264583"
             id="path104212" />
          <path
             d="m 308.76925,173.94242 -3.68416,1.19173 -0.42755,-1.32172 q 1.65079,-0.86738 2.15101,-2.27078 0.50023,-1.4034 -0.14277,-3.39118 -0.52181,-1.61312 -1.40852,-2.25749 -0.88671,-0.64436 -2.07313,-0.26058 -0.93666,0.30298 -1.27186,1.0437 -0.33521,0.74073 -0.20369,2.67553 l 0.1817,2.51638 q 0.15445,2.46771 -0.57625,3.72723 -0.74111,1.26289 -2.65604,1.88233 -2.31041,0.74735 -4.08537,-0.36843 -1.78874,-1.12283 -2.68422,-3.89116 -0.44101,-1.36335 -0.68672,-2.90483 -0.24908,-1.55189 -0.30287,-3.28192 l 3.43439,-1.11093 0.42754,1.32172 q -1.50508,0.82024 -1.91408,2.07917 -0.41941,1.2623 0.18992,3.14601 0.49824,1.54027 1.29527,2.15616 0.78326,0.60886 1.84479,0.26548 0.96788,-0.31309 1.30278,-1.01922 0.32449,-0.70277 0.18227,-2.99049 l -0.1817,-2.51638 q -0.15905,-2.33977 0.67267,-3.67795 0.82835,-1.3486 2.83694,-1.99833 2.35204,-0.76082 4.10526,0.46547 1.74282,1.22965 2.76287,4.38304 0.4915,1.51946 0.71609,3.10226 0.2246,1.58281 0.19543,3.30518 z"
             style="font-weight:bold;font-size:22.4014px;line-height:1.25;font-family:'DejaVu Serif';-inkscape-font-specification:'DejaVu Serif, Bold';fill:#000000;stroke:none;stroke-width:0.264583"
             id="path104214" />
          <path
             d="m 304.15254,158.80734 -3.82534,0.60006 -0.21528,-1.37237 q 1.76626,-0.59814 2.4801,-1.90589 0.71383,-1.30774 0.39007,-3.3717 -0.26273,-1.67493 -1.03759,-2.45021 -0.77486,-0.77528 -2.00675,-0.58205 -0.97254,0.15256 -1.41961,0.83165 -0.44708,0.67908 -0.62019,2.61061 l -0.21463,2.51378 q -0.23392,2.46145 -1.15286,3.591 -0.92974,1.13125 -2.91805,1.44314 -2.39894,0.3763 -3.97726,-1.00369 -1.59082,-1.38911 -2.04171,-4.26351 -0.22206,-1.4156 -0.22333,-2.97654 -0.003,-1.57175 0.21485,-3.28885 l 3.56599,-0.55937 0.21528,1.37236 q -1.61498,0.57442 -2.21609,1.75376 -0.61192,1.18104 -0.30511,3.13693 0.25087,1.5993 0.94161,2.33241 0.67824,0.72401 1.78046,0.55111 1.00496,-0.15764 1.44631,-0.80261 0.43055,-0.64328 0.64836,-2.92505 l 0.21464,-2.51378 q 0.20934,-2.33581 1.24036,-3.52723 1.02933,-1.20222 3.1149,-1.52937 2.44216,-0.38309 3.98171,1.10264 1.52874,1.48742 2.04234,4.76165 0.24748,1.57768 0.22142,3.17613 -0.0261,1.59845 -0.3246,3.29499 z"
             style="font-weight:bold;font-size:22.4014px;line-height:1.25;font-family:'DejaVu Serif';-inkscape-font-specification:'DejaVu Serif, Bold';fill:#000000;stroke:none;stroke-width:0.264583"
             id="path104216" />
          <path
             d="m 299.11074,119.52563 q 2.46217,0.85937 3.53942,2.63167 1.07726,1.77231 0.83558,4.584 -0.35409,4.11944 -2.82695,6.32216 -2.48283,2.19088 -6.37342,1.85647 -3.90148,-0.33536 -5.96312,-2.91686 -2.0716,-2.59334 -1.71751,-6.71278 0.12458,-1.44943 0.60821,-2.98877 0.48363,-1.53934 1.34281,-3.23303 l 3.99957,0.34379 -0.11897,1.38404 q -2.08536,0.24892 -3.19535,1.28429 -1.1209,1.03445 -1.27921,2.87621 -0.20421,2.37576 1.45108,3.68176 1.64438,1.30507 5.27342,1.617 3.62903,0.31194 5.472,-0.69337 1.84298,-1.00531 2.04906,-3.40287 0.13957,-1.62381 -0.67691,-2.72597 -0.81554,-1.11306 -2.60613,-1.73904 z"
             style="font-weight:bold;font-size:22.4014px;line-height:1.25;font-family:'DejaVu Serif';-inkscape-font-specification:'DejaVu Serif, Bold';fill:#000000;stroke:none;stroke-width:0.264583"
             id="path104218" />
          <path
             d="m 304.15209,117.73829 -1.27994,-0.33683 0.53169,-2.0204 -13.23312,-3.48242 -0.53169,2.02041 -1.27994,-0.33683 3.73573,-14.195725 3.72347,0.979865 -0.38415,1.45977 -2.27428,-0.5985 -1.74817,6.64301 5.06688,1.33339 1.08843,-4.13601 -2.00983,-0.5289 0.38137,-1.44919 5.45827,1.43639 -0.38137,1.44919 -2.00983,-0.5289 -1.08843,4.13601 6.38914,1.68136 1.80106,-6.84399 -2.27428,-0.5985 0.38137,-1.44919 3.72346,0.97986 z"
             style="font-weight:bold;font-size:22.4014px;line-height:1.25;font-family:'DejaVu Serif';-inkscape-font-specification:'DejaVu Serif, Bold';fill:#000000;stroke:none;stroke-width:0.264583"
             id="path104220" />
          <path
             d="m 305.93183,88.047385 q 0.53649,-0.82468 1.27267,-1.220154 0.73618,-0.395475 1.80645,-0.444344 l 5.13055,-0.261767 0.70026,-1.519993 1.20208,0.553801 -2.24724,4.877886 -5.56979,0.300268 q -1.70665,0.04473 -2.30843,0.3576 -0.60714,0.298363 -1.00075,1.152738 l -0.27919,0.60601 5.43422,2.503545 0.87876,-1.907442 1.20209,0.5538 -3.51503,7.629767 -1.20209,-0.5538 0.87418,-1.897506 -12.42818,-5.725657 -0.87418,1.897507 -1.20208,-0.5538 3.89948,-8.464275 q 1.18999,-2.582994 2.87846,-3.503201 1.68311,-0.934719 3.59055,-0.05596 1.5498,0.713991 1.99159,2.133879 0.43642,1.405378 -0.23438,3.541099 z m -2.48554,3.852822 0.59957,-1.301432 q 0.64076,-1.390844 0.22899,-2.48378 -0.40718,-1.102871 -1.80796,-1.748209 -1.40078,-0.645337 -2.49371,-0.233573 -1.08836,0.40183 -1.72913,1.792673 l -0.59956,1.301432 z"
             style="font-weight:bold;font-size:22.4014px;line-height:1.25;font-family:'DejaVu Serif';-inkscape-font-specification:'DejaVu Serif, Bold';fill:#000000;stroke:none;stroke-width:0.264583"
             id="path104222" />
          <path
             d="m 318.2075,82.286947 -1.08995,-0.750802 1.22858,-1.783563 -11.12475,-7.663141 -2.53783,3.68423 2.12586,1.464373 -0.85008,1.234082 -3.35995,-2.314455 9.18336,-13.331685 3.35995,2.314454 -0.83767,1.216066 -2.12587,-1.464373 -2.55645,3.711253 11.12475,7.66314 1.23479,-1.792571 1.08996,0.750801 z"
             style="font-weight:bold;font-size:22.4014px;line-height:1.25;font-family:'DejaVu Serif';-inkscape-font-specification:'DejaVu Serif, Bold';fill:#000000;stroke:none;stroke-width:0.264583"
             id="path104224" />
          <path
             d="m 326.24061,71.23476 -0.98105,-0.888394 1.40234,-1.548602 -10.14294,-9.184963 -1.40234,1.548602 -0.98105,-0.888394 5.63873,-6.22684 0.98105,0.888394 -1.40968,1.55671 10.14293,9.184963 1.40969,-1.55671 0.98105,0.888394 z"
             style="font-weight:bold;font-size:22.4014px;line-height:1.25;font-family:'DejaVu Serif';-inkscape-font-specification:'DejaVu Serif, Bold';fill:#000000;stroke:none;stroke-width:0.264583"
             id="path104226" />
          <path
             d="m 333.25989,63.426317 -0.8589,-1.006975 1.58952,-1.355782 -8.88001,-10.410959 -1.58952,1.355782 -0.8589,-1.006975 11.07673,-9.447883 2.49861,2.929383 -1.14013,0.972471 -1.52614,-1.789253 -5.12642,4.372574 3.4001,3.98629 3.15408,-2.690268 -1.34868,-1.581201 1.14013,-0.972472 3.66274,4.294208 -1.14013,0.972472 -1.34869,-1.581201 -3.15408,2.690269 4.40097,5.159708 1.9557,-1.668109 0.8589,1.006976 z"
             style="font-weight:bold;font-size:22.4014px;line-height:1.25;font-family:'DejaVu Serif';-inkscape-font-specification:'DejaVu Serif, Bold';fill:#000000;stroke:none;stroke-width:0.264583"
             id="path104228" />
          <path
             d="m 345.5601,53.34221 -0.72222,-1.109104 1.75073,-1.140026 -7.46687,-11.466847 -1.75073,1.140026 -0.72222,-1.109104 7.0396,-4.583978 0.72222,1.109103 -1.7599,1.145995 7.46687,11.466847 1.7599,-1.145995 0.72221,1.109104 z"
             style="font-weight:bold;font-size:22.4014px;line-height:1.25;font-family:'DejaVu Serif';-inkscape-font-specification:'DejaVu Serif, Bold';fill:#000000;stroke:none;stroke-width:0.264583"
             id="path104230" />
          <path
             d="m 354.31946,47.541898 -0.5658,-1.196486 1.88867,-0.893118 -5.84969,-12.370283 -1.88867,0.893118 -0.5658,-1.196486 13.27012,-6.275205 1.64596,3.480687 -1.36459,0.645289 -1.00534,-2.125988 -6.20986,2.936534 2.23981,4.736504 3.86633,-1.82832 -0.88844,-1.87878 1.3547,-0.640613 2.41282,5.102371 -1.3547,0.640613 -0.88844,-1.87878 -3.86634,1.82832 2.82431,5.972543 6.39774,-3.025379 -1.00534,-2.125988 1.3547,-0.640613 1.64596,3.480687 z"
             style="font-weight:bold;font-size:22.4014px;line-height:1.25;font-family:'DejaVu Serif';-inkscape-font-specification:'DejaVu Serif, Bold';fill:#000000;stroke:none;stroke-width:0.264583"
             id="path104232" />
          <path
             d="m 375.57416,37.395989 1.46876,-0.392932 q 2.47258,-0.661481 3.18974,-2.551768 0.72774,-1.893115 -0.19664,-5.348389 -0.91873,-3.434142 -2.48112,-4.703265 -1.56522,-1.279689 -4.04836,-0.615381 l -1.46876,0.392931 z m -5.74431,2.906818 -0.34205,-1.278557 2.01822,-0.539927 -3.53638,-13.218803 -2.01822,0.539927 -0.34204,-1.278558 8.094,-2.165361 q 4.24777,-1.136391 7.04121,0.290276 2.79344,1.426668 3.81393,5.241207 1.02614,3.835672 -0.68953,6.479968 -1.70793,2.630903 -5.94513,3.764467 z"
             style="font-weight:bold;font-size:22.4014px;line-height:1.25;font-family:'DejaVu Serif';-inkscape-font-specification:'DejaVu Serif, Bold';fill:#000000;stroke:none;stroke-width:0.264583"
             id="path104234" />
          <path
             d="m 397.13006,33.897083 -0.0411,-3.871899 1.38907,-0.01474 q 0.33668,1.834146 1.52757,2.729431 1.19089,0.895285 3.27997,0.87312 1.69532,-0.01799 2.57442,-0.672704 0.87909,-0.654716 0.86586,-1.901599 -0.0104,-0.984381 -0.61781,-1.524876 -0.60737,-0.540496 -2.49362,-0.990852 l -2.4564,-0.575571 q -2.40182,-0.58709 -3.38675,-1.659581 -0.98505,-1.083429 -1.0064,-3.095941 -0.0258,-2.42814 1.56778,-3.79052 1.60437,-1.373433 4.51376,-1.404302 1.43283,-0.0152 2.97758,0.209062 1.55568,0.224148 3.2233,0.687762 l 0.0383,3.609397 -1.38908,0.01474 q -0.33506,-1.68102 -1.41518,-2.446215 -1.08023,-0.776132 -3.05993,-0.755127 -1.61876,0.01717 -2.44398,0.594747 -0.8144,0.56652 -0.80257,1.682152 0.0108,1.017194 0.58523,1.5471 0.57433,0.518969 2.80069,1.064165 l 2.4564,0.575572 q 2.28105,0.544616 3.311,1.736956 1.0409,1.192224 1.0633,3.303174 0.0262,2.471891 -1.66634,3.780627 -1.69269,1.297799 -5.00677,1.332961 -1.59688,0.01694 -3.17479,-0.239786 -1.57792,-0.256728 -3.21353,-0.797253 z"
             style="font-weight:bold;font-size:22.4014px;line-height:1.25;font-family:'DejaVu Serif';-inkscape-font-specification:'DejaVu Serif, Bold';fill:#000000;stroke:none;stroke-width:0.264583"
             id="path104236" />
          <path
             d="m 412.69257,34.480513 0.2258,-1.304115 2.05857,0.356439 2.33458,-13.483045 -2.05857,-0.356439 0.22581,-1.304115 8.27736,1.433219 -0.2258,1.304116 -2.06934,-0.358305 -0.93682,5.410462 6.40202,1.108506 0.93682,-5.410462 -2.05857,-0.356439 0.22581,-1.304116 8.27736,1.43322 -0.22581,1.304115 -2.06934,-0.358305 -2.33458,13.483045 2.06934,0.358305 -0.2258,1.304115 -8.27736,-1.433219 0.2258,-1.304116 2.05857,0.356439 1.14209,-6.596022 -6.40202,-1.108505 -1.14209,6.596022 2.06934,0.358304 -0.22581,1.304116 z"
             style="font-weight:bold;font-size:22.4014px;line-height:1.25;font-family:'DejaVu Serif';-inkscape-font-specification:'DejaVu Serif, Bold';fill:#000000;stroke:none;stroke-width:0.264583"
             id="path104238" />
          <path
             d="m 432.35841,38.037108 0.46843,-1.237854 1.24808,0.472297 11.06078,-11.860172 2.44502,0.925237 0.44819,16.215369 1.45269,0.549723 -0.46842,1.237854 -7.15091,-2.706029 0.46842,-1.237854 1.49361,0.565208 -0.0776,-3.59638 -5.73914,-2.171791 -2.45952,2.6363 1.82098,0.689089 -0.46843,1.237854 z m 6.61888,-3.892554 4.73659,1.792406 -0.14245,-6.73184 z"
             style="font-weight:bold;font-size:22.4014px;line-height:1.25;font-family:'DejaVu Serif';-inkscape-font-specification:'DejaVu Serif, Bold';fill:#000000;stroke:none;stroke-width:0.264583"
             id="path104240" />
          <path
             d="m 449.80832,44.452278 0.71355,-1.114701 1.75035,1.120445 7.37724,-11.524714 -1.75035,-1.120445 0.71354,-1.1147 5.67484,3.632599 -1.72491,11.337635 9.5923,-6.301531 5.66563,3.626702 -0.71354,1.1147 -1.75957,-1.126341 -7.37725,11.524714 1.75957,1.126342 -0.71354,1.1147 -7.07513,-4.528955 0.71355,-1.1147 1.75035,1.120444 6.71677,-10.492925 -10.40419,6.859763 -2.33074,-1.49196 1.89194,-12.308663 -6.71677,10.492926 1.75035,1.120444 -0.71354,1.114701 z"
             style="font-weight:bold;font-size:22.4014px;line-height:1.25;font-family:'DejaVu Serif';-inkscape-font-specification:'DejaVu Serif, Bold';fill:#000000;stroke:none;stroke-width:0.264583"
             id="path104242" />
          <path
             d="m 470.4613,58.404608 0.92524,-0.946379 1.49387,1.460505 9.56592,-9.784468 -1.49387,-1.460505 0.92524,-0.94638 10.49621,10.261769 -2.69161,2.753104 -1.07934,-1.055234 1.64402,-1.681584 -4.91178,-4.802079 -3.66274,3.746411 3.05814,2.98983 1.45286,-1.486051 1.07152,1.047588 -3.94566,4.0358 -1.07152,-1.047588 1.45286,-1.48605 -3.05814,-2.98983 -4.61856,4.724076 5.06039,4.947365 1.64403,-1.681583 1.07152,1.047587 -2.69161,2.753104 z"
             style="font-weight:bold;font-size:22.4014px;line-height:1.25;font-family:'DejaVu Serif';-inkscape-font-specification:'DejaVu Serif, Bold';fill:#000000;stroke:none;stroke-width:0.264583"
             id="path104244" />
          <path
             d="m 482.52734,70.512119 1.06441,-0.786607 1.24167,1.680175 11.0047,-8.132603 -1.24167,-1.680175 1.06441,-0.786607 4.99267,6.755886 -1.0644,0.786607 -1.24817,-1.688972 -10.86396,8.028589 3.82252,5.172475 2.07603,-1.534208 0.87762,1.187558 -3.28118,2.424829 z"
             style="font-weight:bold;font-size:22.4014px;line-height:1.25;font-family:'DejaVu Serif';-inkscape-font-specification:'DejaVu Serif, Bold';fill:#000000;stroke:none;stroke-width:0.264583"
             id="path104246" />
          <path
             d="m 491.81096,83.269477 1.17678,-0.605732 0.95615,1.857551 12.16647,-6.262562 -0.95615,-1.857551 1.17677,-0.605731 6.71812,13.051484 -3.42334,1.762128 -0.69084,-1.342105 2.09096,-1.0763 -3.14379,-6.10755 -4.65847,2.397896 1.95736,3.80263 1.84783,-0.951148 0.68583,1.332379 -5.01831,2.58312 -0.68583,-1.33238 1.84783,-0.951149 -1.95736,-3.80263 -5.87415,3.023651 3.23892,6.292332 2.09096,-1.076299 0.68582,1.332379 -3.42334,1.762128 z"
             style="font-weight:bold;font-size:22.4014px;line-height:1.25;font-family:'DejaVu Serif';-inkscape-font-specification:'DejaVu Serif, Bold';fill:#000000;stroke:none;stroke-width:0.264583"
             id="path104248" />
          <path
             d="m 500.39057,98.972165 3.6832,-1.19471 0.42861,1.321374 q -1.65008,0.868712 -2.14917,2.272511 -0.49909,1.40381 0.14551,3.39107 0.52311,1.6127 1.41035,2.25635 0.88723,0.64365 2.07334,0.25891 0.93641,-0.30374 1.27102,-1.04473 0.3346,-0.741 0.20152,-2.67569 l -0.18373,-2.51623 q -0.15645,-2.467588 0.57324,-3.727704 0.74008,-1.26349 2.65451,-1.88447 2.30981,-0.749225 4.08567,0.365128 1.78964,1.121383 2.68736,3.888984 0.44211,1.362992 0.68907,2.904272 0.25034,1.55169 0.30552,3.28168 l -3.43349,1.11371 -0.42861,-1.32138 q 1.50443,-0.82146 1.91241,-2.08072 0.41838,-1.26263 -0.19247,-3.14585 -0.49948,-1.53987 -1.29701,-2.155119 -0.78375,-0.60822 -1.84501,-0.263981 -0.96762,0.313865 -1.30195,1.020269 -0.32392,0.70303 -0.17985,2.990641 l 0.18372,2.51623 q 0.16095,2.33963 -0.66969,3.67849 -0.82725,1.34926 -2.83533,2.00062 -2.35142,0.76272 -4.10563,-0.46215 -1.74381,-1.22824 -2.7664,-4.38081 -0.49274,-1.51906 -0.71861,-3.10168 -0.22587,-1.58262 -0.1981,-3.305015 z"
             style="font-weight:bold;font-size:22.4014px;line-height:1.25;font-family:'DejaVu Serif';-inkscape-font-specification:'DejaVu Serif, Bold';fill:#000000;stroke:none;stroke-width:0.264583"
             id="path104250" />
          <path
             d="m 505.01951,114.10344 3.82486,-0.60313 0.21637,1.37219 q -1.76577,0.59957 -2.47856,1.90788 -0.71278,1.30832 -0.38736,3.37201 0.26408,1.67473 1.03956,2.44939 0.77548,0.77465 2.00721,0.58043 0.97242,-0.15334 1.41895,-0.83279 0.44653,-0.67944 0.61809,-2.61111 l 0.21261,-2.51395 q 0.23194,-2.46164 1.14997,-3.59192 0.92883,-1.132 2.9169,-1.44549 2.39863,-0.37823 3.97806,1.0005 1.59194,1.38782 2.04514,4.26187 0.22319,1.41541 0.22571,2.97635 0.004,1.57175 -0.2122,3.28903 l -3.56555,0.56223 -0.21637,-1.37219 q 1.61451,-0.57571 2.21467,-1.75554 0.61097,-1.18153 0.30259,-3.13717 -0.25215,-1.5991 -0.94348,-2.33166 -0.67882,-0.72346 -1.7809,-0.54967 -1.00483,0.15845 -1.44567,0.80377 -0.43003,0.64363 -0.64601,2.92557 l -0.21261,2.51396 q -0.20747,2.33596 -1.23753,3.52821 -1.02836,1.20305 -3.11367,1.53188 -2.44185,0.38505 -3.98259,-1.09944 -1.52994,-1.48619 -2.04617,-4.76001 -0.24875,-1.57748 -0.22397,-3.17595 0.0248,-1.59847 0.32195,-3.29525 z"
             style="font-weight:bold;font-size:22.4014px;line-height:1.25;font-family:'DejaVu Serif';-inkscape-font-specification:'DejaVu Serif, Bold';fill:#000000;stroke:none;stroke-width:0.264583"
             id="path104252" />
          <text
             xml:space="preserve"
             style="font-style:normal;font-weight:normal;font-size:10.5833px;line-height:1.25;font-family:sans-serif;fill:#000000;fill-opacity:1;stroke:none;stroke-width:0.264583"
             x="290.43356"
             y="152.74664"
             id="text52679"><tspan
               sodipodi:role="line"
               id="tspan52677"
               style="fill:#000000;stroke:none;stroke-width:0.264583"
               x="290.43356"
               y="152.74664"> </tspan></text>
          <path
             style="color:#000000;fill:#000000;stroke:none;stroke-linecap:round;stroke-linejoin:round;-inkscape-stroke:none"
             d="m 404.5957,37.720703 c -54.52215,0 -98.77539,44.253235 -98.77539,98.775387 0,54.52216 44.25324,98.77344 98.77539,98.77344 54.52216,0 98.77344,-44.25128 98.77344,-98.77344 0,-54.522152 -44.25128,-98.775387 -98.77344,-98.775387 z m 0,5 c 51.81996,0 93.77344,41.955433 93.77344,93.775387 0,51.81996 -41.95348,93.77344 -93.77344,93.77344 -51.81995,0 -93.77539,-41.95348 -93.77539,-93.77344 0,-51.819954 41.95544,-93.775387 93.77539,-93.775387 z"
             id="circle104452" />
        </g>
        <g
           id="g104725"
           transform="rotate(-15.872584,331.28143,-1151.7669)">
          <path
             d="m -260.35365,69.660896 q -0.53799,3.12102 -2.20603,5.47337 -1.6027,2.30621 -3.98184,3.78993 -2.3234,1.49332 -5.28296,2.01616 -2.90382,0.53244 -6.08056,-0.0152 -2.22931,-0.38428 -4.25686,-1.93894 -2.01795,-1.6104 -3.62853,-4.58529 l 5.51722,-7.3703 q 0.26524,0.79177 0.911,1.70652 0.65537,0.85902 1.50675,1.57967 0.90712,0.73025 1.78732,1.2837 0.94554,0.50732 1.7258,0.64182 0.66879,0.11528 1.43174,0.0172 0.76295,-0.098 1.45287,-0.43822 0.68991,-0.34018 1.12037,-0.83986 0.49581,-0.54581 0.63031,-1.32606 0.23057,-1.33759 -0.46902,-2.60595 -0.63423,-1.31449 -1.74316,-2.53864 -1.09931,-1.27987 -2.42156,-2.59819 -1.32224,-1.3183 -2.40235,-2.70965 -1.02437,-1.38173 -1.66631,-2.98449 -0.64193,-1.60277 -0.33451,-3.3862 0.49957,-2.8981 2.65959,-5.10825 2.16003,-2.21014 5.03115,-3.55167 2.93646,-1.38763 6.18428,-1.91817 3.24782,-0.53053 5.97872,-0.0598 1.50477,0.25938 2.77511,0.88008 1.27994,0.56496 2.08329,1.56427 0.86869,0.95318 1.21465,2.27536 0.40171,1.3318 0.0847,3.17097 -0.1345,0.78025 -0.43619,1.5317 -0.24597,0.76103 -0.51115,1.63354 l -8.48471,0.94775 q 0.18833,-0.42665 0.32091,-0.8629 0.18832,-0.42665 0.26518,-0.8725 0.28821,-1.67198 -0.19996,-2.50218 -0.42282,-0.87633 -1.37028,-1.03965 -0.44586,-0.0769 -1.17229,0.14226 -0.6707,0.22871 -1.43556,0.67076 -0.69952,0.39592 -1.27028,1.04358 -0.57075,0.64767 -0.71486,1.48365 -0.23057,1.33759 0.34025,2.3542 0.62655,1.02622 1.6067,1.99862 0.98015,0.97239 2.11789,2.02934 1.20309,1.01082 2.09678,2.48482 0.89369,1.47398 1.28197,3.54951 0.45361,2.02941 -0.0556,4.98323 z"
             id="path1349"
             style="font-size:56.5545px;line-height:1.25;font-family:Bangers;-inkscape-font-specification:'Bangers, Normal';letter-spacing:2.76754px;fill:#333333;stroke:none;stroke-width:1.41387" />
          <path
             style="fill:#ffffff;stroke:none;stroke-width:0.264583px;stroke-linecap:butt;stroke-linejoin:miter;stroke-opacity:1"
             d="m -122.22083,15.568652 c 0.26153,-0.03149 12.21566,-11.1615606 12.21566,-11.1615606 l 2.97906,3.043684 -12.00604,11.5962646 10.33735,11.200246 8.46553,-7.043049 2.893566,3.516738 -14.085926,12.996671 -2.5232,0.0143 z"
             id="path3427" />
          <path
             style="fill:#cccccc;stroke-width:0.324563"
             d="m -97.924144,27.913496 c -0.68857,0.59827 -2.351776,2.09968 -3.696006,3.33647 -1.34424,1.23676 -2.69129,2.37528 -2.99346,2.53004 -0.30218,0.15477 -0.588,0.40516 -0.63518,0.55647 -0.047,0.15134 0.26812,1.68425 0.70065,3.40655 0.97821,3.89529 1.11791,5.75849 0.56648,7.55535 -0.40236,1.31068 -0.98624,1.86153 -8.96253,8.45317 -4.69273,3.87811 -9.33769,7.60298 -10.32213,8.2775 -1.71904,1.17785 -1.89188,1.21593 -4.3662,0.96229 -1.41696,-0.14526 -3.97785,-0.15663 -5.69086,-0.0252 l -3.11455,0.23887 -3.66398,2.69222 c -3.03185,2.22775 -3.72403,2.8849 -4.01219,3.8091 -0.37346,1.19793 -1.48116,1.91414 -2.47912,1.603 -0.29525,-0.0921 -1.03609,0.0927 -1.6463,0.41052 -0.61022,0.31785 -1.28314,0.52376 -1.49539,0.45758 -0.21237,-0.0658 -0.53322,0.2079 -0.71326,0.60905 -0.20446,0.45542 -0.7257,0.8008 -1.38798,0.91957 -0.62492,0.11204 -1.18577,0.46849 -1.36526,0.86767 -0.18068,0.40179 -0.74278,0.75599 -1.38134,0.87039 -0.64161,0.11496 -1.1532,0.43837 -1.26608,0.80039 -0.10413,0.33412 -0.68913,0.96505 -1.29993,1.40206 -1.2415,0.88828 -3.23329,0.90432 -7.44462,0.06 -1.29528,-0.2597 -2.61768,-0.40265 -2.93869,-0.31768 -0.321,0.085 -5.16856,3.29543 -10.77237,7.13432 l -10.18872,6.97983 -3.9785,-1.24043 c -3.70449,-1.155 -3.9468,-1.27507 -3.51793,-1.74349 0.25333,-0.2767 6.10398,-4.35412 13.00147,-9.06094 6.89748,-4.70683 12.56742,-8.64304 12.59988,-8.74714 0.0322,-0.10419 -0.49703,-1.6093 -1.17662,-3.34489 -1.39123,-3.55298 -1.28393,-4.29504 0.79593,-5.5047 0.60732,-0.35322 1.27954,-1.05821 1.49383,-1.56665 0.24648,-0.58486 0.66633,-0.9736 1.14294,-1.05829 0.6079,-0.10804 0.77585,-0.32322 0.87002,-1.11477 0.098,-0.82388 0.28159,-1.03072 1.1466,-1.29227 0.88335,-0.26707 1.05625,-0.469 1.2152,-1.41923 0.14684,-0.87797 0.3564,-1.17799 1.00972,-1.44583 0.45343,-0.18588 0.77461,-0.45573 0.71372,-0.59966 -0.0609,-0.14394 0.34843,-0.86537 0.90969,-1.60315 0.56122,-0.7378 1.09292,-1.5741 1.18158,-1.85845 0.0887,-0.28434 0.73459,-0.93458 1.43542,-1.44496 0.70083,-0.5104 1.85662,-1.66017 2.56842,-2.55506 1.17967,-1.48312 1.31509,-1.79162 1.53076,-3.48717 0.13013,-1.02306 0.20985,-2.84355 0.17714,-4.04555 -0.0584,-2.14693 -0.0432,-2.20614 0.86178,-3.35904 0.50668,-0.64547 1.13106,-1.8347 1.3875,-2.64274 0.50765,-1.5981 1.04374,-2.20834 7.36658,-8.377152 1.93458,-1.88745 3.54335,-3.51487 3.57504,-3.6165 0.0313,-0.10175 0.93279,-1.02549 2.00246,-2.05303 1.06968,-1.02755 2.83815,-2.83691 3.92994,-4.0208 1.09178,-1.1839 2.25383,-2.2766 2.58231,-2.42823 0.32849,-0.15164 1.19849,-0.0883 1.93334,0.14087 1.02031,0.31812 1.47858,0.28491 1.93892,-0.14053 0.46569,-0.43038 0.96438,-0.46157 2.19219,-0.13713 1.31796,0.34829 1.74134,0.64329 2.47959,1.72744 0.66682,0.97933 1.1698,1.36528 2.00423,1.53788 1.23591,0.25564 0.72909,0.66781 9.57236,-7.7846996 2.18944,-2.09267 4.2432,-3.81971 4.56391,-3.83786 1.46744,-0.083 3.21511,2.52897 2.73102,4.08164 -0.11024,0.35343 -2.59596,2.9088096 -5.52388,5.6785996 -2.92794,2.76977 -5.37703,5.20759 -5.44243,5.41733 -0.0649,0.20991 0.87587,1.34728 2.09171,2.52783 1.21582,1.18055 3.21103,3.43856 4.43377,5.0178 1.68411,2.175132 2.35687,2.825122 2.77458,2.680722 0.30328,-0.10484 2.26048,-1.612602 4.34933,-3.350582 l 3.797926,-3.15995 1.49889,0.63348 c 2.51232,1.06187 2.64797,3.01001 0.3487,5.007772 z m -1.40855,-2.409322 c -0.58367,-0.82593 -1.121516,-1.52049 -1.195226,-1.54347 -0.3068,-0.0957 -7.43038,6.715082 -8.80902,8.422182 -0.88901,1.10081 -1.8336,2.6848 -2.32779,3.90344 -0.82886,2.04394 -0.82904,2.05064 -0.075,1.97346 0.83352,-0.0853 4.59793,-2.81249 7.23866,-5.24415 0.93054,-0.85687 1.92582,-1.71056 2.21176,-1.8971 0.57874,-0.37757 3.841286,-3.61533 3.949176,-3.919192 0.0374,-0.10654 -0.40885,-0.86924 -0.99251,-1.69517 z M -109.11309,6.1415344 c -0.55853,-0.66926 -1.10285,-1.16132 -1.20961,-1.09347 -0.10667,0.0678 -1.4021,1.23657 -2.87853,2.59715 -6.21368,5.7261296 -8.4662,7.9276096 -8.36244,8.1728996 0.16411,0.38795 1.52846,0.0443 2.97693,-0.74973 0.70478,-0.38636 1.75731,-0.77783 2.33898,-0.86988 0.72386,-0.11457 2.13727,-1.09415 4.47936,-3.10444 1.88199,-1.6153696 3.47782,-3.1167396 3.5463,-3.3363596 0.0684,-0.21963 -0.33247,-0.9469 -0.89099,-1.61617 z m -24.65414,20.9764396 c -0.60769,0.0754 -11.35385,10.233352 -11.20306,10.589862 0.0661,0.15615 0.27497,0.17701 0.46425,0.0463 0.73111,-0.50476 11.0207,-10.16362 11.10072,-10.42026 0.0463,-0.149292 -0.11634,-0.246382 -0.36189,-0.215952 z"
             id="path2707" />
          <path
             id="path2705"
             style="fill:#333333;stroke:#f9f9f9;stroke-width:0.324562"
             d="m -111.86357,40.755136 c 0.26674,0.0769 0.13035,0.56586 -0.2199,0.78847 -0.38482,0.24484 -1.60541,-0.20109 -1.49767,-0.54673 0.0615,-0.19735 0.66696,-0.32957 1.21321,-0.31209 0.18209,0.006 0.35762,0.0285 0.50422,0.0708 z" />
          <path
             id="path1930"
             style="fill:#333333;stroke:#f9f9f9;stroke-width:0.324562"
             d="m -116.2996,35.672346 c 0.15676,0.0489 0.23808,0.24 0.18,0.4251 -0.0578,0.18521 -0.23341,0.29695 -0.39018,0.24794 -0.15676,-0.0489 -0.23794,-0.24051 -0.17983,-0.4256 0.0433,-0.13891 0.15217,-0.23624 0.27039,-0.25567 0.0394,-0.007 0.0805,-0.004 0.11962,0.008 z" />
          <path
             id="path1928"
             style="fill:#333333;stroke:#f9f9f9;stroke-width:0.324562"
             d="m -99.165144,23.096142 c -0.13906,-0.03556 -0.25991,-0.05371 -0.36186,-0.05561 -0.589016,-0.01101 -0.555756,0.522989 0.14851,1.42188 l 0.7238,0.92357 0.20919,-1.002123 c 0.17422,-0.834252 0.078,-1.042958 -0.5745,-1.246446 -0.0504,-0.01571 -0.0988,-0.02941 -0.14514,-0.04127 z" />
          <path
             id="path1926"
             style="fill:#333333;stroke:none;stroke-width:1.414;stroke-miterlimit:4;stroke-dasharray:none"
             d="m -116.16776,15.430175 c -0.26775,-0.05146 -1.11034,0.149547 -2.03317,0.495846 -2.38092,0.893433 -4.30421,1.374296 -4.83462,1.208951 -0.22223,-0.06929 -0.49292,-0.40287 -0.60146,-0.741575 -0.10856,-0.33871 -0.55651,-0.727998 -0.99565,-0.864943 -0.44811,-0.139712 -1.07098,-0.76416 -1.41925,-1.423251 -0.42256,-0.799667 -1.04346,-1.360923 -1.94648,-1.759047 -0.59768,-0.263517 -0.94783,-0.391359 -1.23479,-0.37151 -0.28696,0.01984 -0.51107,0.187267 -0.85533,0.515927 -0.66533,0.635143 -0.95912,0.668268 -2.27945,0.256588 -1.33008,-0.414696 -1.61831,-0.38024 -2.35434,0.282034 -0.46137,0.415073 -1.19279,1.307059 -1.62564,1.981707 -0.43285,0.674644 -1.56161,1.985588 -2.50831,2.913213 -0.94671,0.927626 -2.18835,2.205838 -2.75955,2.8407 -0.57118,0.634882 -3.09586,3.114421 -5.61003,5.509954 -5.58425,5.320717 -6.00844,5.802597 -6.52203,7.409837 -0.22444,0.70227 -0.68815,1.51286 -1.03045,1.80066 -0.94021,0.79044 -0.95109,1.1993 -0.0797,3.0144 2.79436,5.82049 2.84891,6.3452 0.62786,6.04312 l -1.42558,-0.19367 -1.93616,2.33128 c -1.06505,1.28233 -2.2259,2.40891 -2.57933,2.50351 -0.35344,0.0946 -0.72983,0.45134 -0.83624,0.79266 -0.10641,0.34135 -0.55498,1.10447 -0.99749,1.69614 -0.4425,0.59166 -0.92131,1.44963 -1.06367,1.90618 -0.16899,0.54209 -0.48583,0.84261 -0.91374,0.8668 -0.54484,0.0308 -0.71319,0.27472 -0.99839,1.44606 -0.30571,1.25596 -0.42733,1.40711 -1.12174,1.39809 -0.67197,-0.009 -0.81921,0.15851 -1.07392,1.21666 -0.2555,1.06167 -0.40085,1.22526 -1.08263,1.21527 -0.61327,-0.009 -0.85411,0.2025 -1.08845,0.95411 -0.19989,0.6411 -0.57967,1.06911 -1.13122,1.27452 -0.45671,0.1701 -1.13927,0.72365 -1.51626,1.23057 -0.67012,0.90112 -0.66147,0.98299 0.3663,3.65268 1.72022,4.4683 2.79551,3.19863 -10.18195,12.02264 -2.53372,1.7228 -3.87905,2.37255 -5.9942,3.81906 l -2.56321,1.61358 c 0,0 -3.035,2.12087 -11.88428,7.14107 -8.84925,5.02021 -10.40341,5.8786 -12.25037,6.88953 -11.18091,6.119714 -18.85493,5.101434 -23.81456,1.789084 1.16576,-0.936574 2.47573,-1.838184 3.41573,-2.820674 3.32436,-3.47465 5.54648,-7.32244 4.82072,-11.53506 -0.36288,-2.10631 -1.67602,-4.09051 -3.49619,-5.35549 -1.82015,-1.26496 -4.0484,-1.94192 -6.65835,-2.23063 -2.83348,-0.31343 -5.50025,0.20646 -7.57776,1.60178 -2.07751,1.39532 -3.39662,3.56407 -3.97113,5.82069 -1.07564,4.22515 0.0524,8.87642 2.63503,13.07372 -16.58884,7.586504 -18.83206,7.415024 -30.0456,-3.08741 -8.2777,-7.6517 -15.30121,-10.19982 -25.12681,-6.87487 -2.17954,0.87583 -3.38411,-0.74617 -3.98044,-2.27506 -1.01112,-2.6634 -0.0397,-8.60921 1.04216,-12.58528 2.11858,-9.49857 13.3533,-7.92427 17.78279,-1.76615 1.3169,1.83083 2.66729,4.24154 4.35472,3.90244 1.90266,-2.65057 3.07386,-3.21706 5.18908,-6.82019 -0.87215,-2.10019 -2.50339,-4.03018 -2.95552,-4.59091 -9.13429,-10.92642 -27.80864,-5.37791 -31.12438,7.43677 -1.43618,5.27827 -2.61309,12.21574 -0.83188,16.9076 2.52092,5.75041 7.21366,8.28087 12.84174,6.39623 8.85569,-2.70145 12.1942,-0.0358 18.03113,5.384854 12.71841,14.27335 23.53657,12.05482 39.61984,3.38999 7.14937,5.84325 18.91045,8.20465 33.20871,0.37866 6.52913,-3.57363 12.02772,-6.630354 17.88031,-10.252134 5.85259,-3.62179 8.1691,-5.25032 8.1691,-5.25032 l 2.87569,-2.54819 c 3.43322,-2.34553 3.78974,-2.78998 6.81062,-4.86127 3.66735,-2.5149 6.89231,-4.63912 7.16663,-4.72082 0.27434,-0.0816 1.336,-0.0314 2.35956,0.11164 6.76012,0.94467 6.73392,0.94345 7.74934,0.25485 0.5421,-0.36764 1.11961,-0.94113 1.28331,-1.27479 0.29523,-0.60152 0.80287,-0.84464 1.87346,-0.89584 0.33951,-0.0162 0.66046,-0.36128 0.82448,-0.88734 0.21474,-0.68847 0.45329,-0.84754 1.1927,-0.79554 1.01613,0.0715 1.44165,-0.22416 1.77324,-1.23111 0.12973,-0.39434 0.46634,-0.64277 0.82751,-0.61087 0.33479,0.0297 0.96045,-0.1497 1.39041,-0.3987 0.42997,-0.249 1.25518,-0.41424 1.83429,-0.36705 1.48526,0.1211 1.98464,-0.19443 2.12114,-1.34171 0.1,-0.84019 0.58533,-1.31829 3.58946,-3.53363 1.91067,-1.40901 3.53091,-2.74304 3.60032,-2.96535 0.0695,-0.22226 -0.0424,-0.61065 -0.24833,-0.86305 -0.57556,-0.70542 0.15178,-1.40154 1.49314,-1.42895 0.65884,-0.0134 3.23377,0.44383 5.72197,1.0156 2.48818,0.57175 4.76862,1.02646 5.06793,1.01068 0.2992,-0.0158 1.92319,-1.12811 3.60868,-2.4714 6.60314,-5.26248 16.5158,-13.42735 16.8234,-13.85733 0.51884,-0.72526 0.76309,-1.69967 0.77377,-3.08407 0.014,-1.82065 -1.26791,-7.41637 -1.7322,-7.56111 -0.21263,-0.0663 -1.43763,0.70039 -2.72261,1.70364 -2.4122,1.8833 -2.8859,2.09041 -3.99072,1.74601 -0.56712,-0.17682 -0.60382,-0.42376 -0.2925,-1.94151 0.39475,-1.92446 1.26866,-3.41243 3.17736,-5.40976 0.6505,-0.68072 1.22503,-1.37602 1.27744,-1.54507 0.17618,-0.57125 -6.60346,-8.447283 -9.01676,-10.474815 -0.7308,-0.61401 -0.51358,-1.384531 0.76736,-2.724856 0.67038,-0.701569 1.13105,-1.393566 1.0244,-1.537516 -0.0133,-0.01798 -0.0397,-0.03037 -0.0779,-0.03773 z m -9.62643,1.356651 c 0.0508,0.0084 0.0956,0.03525 0.12994,0.08154 0.28875,0.38955 0.13391,0.860003 -0.3363,1.020239 -0.52107,0.177623 -0.63984,-0.253956 -0.22934,-0.833475 0.11838,-0.167144 0.26217,-0.262853 0.38325,-0.270861 0.0182,-0.0012 0.0355,-2.41e-4 0.0525,0.0026 z m 4.37555,5.25202 -1.4e-4,5.09e-4 c 0.30023,0.06399 0.24979,0.66133 -0.0728,0.866302 -0.38723,0.245849 -1.55345,-0.172543 -1.62824,-0.584391 -0.0399,-0.219575 0.48956,-0.363794 1.09205,-0.350838 0.20082,0.0043 0.40991,0.02593 0.60863,0.06829 z m -9.77575,-1.823341 c 0.73208,0.217541 1.81404,0.655412 3.36328,1.318423 l 4.07991,1.745681 1.51669,3.848694 c 1.51373,3.840623 1.51498,3.847153 0.62963,3.688333 -0.64457,-0.11561 -0.91088,0.003 -0.97327,0.43566 -0.11717,0.81174 1.62504,1.61296 1.86106,0.85582 0.0903,-0.28958 0.3341,-0.47419 0.54178,-0.40899 0.48932,0.15256 1.21605,2.02024 0.87134,2.23934 -0.145,0.0921 -1.96447,-0.36291 -4.04278,-1.01092 l -3.77822,-1.17799 -0.86588,-1.47059 c -0.91601,-1.55666 -1.26111,-2.71079 -0.88337,-2.95085 0.12541,-0.07972 0.81128,0.38604 1.52439,1.03463 2.40528,2.1876 3.7202,1.26248 2.28539,-1.607693 -0.73688,-1.474042 -0.75853,-1.664335 -0.20627,-1.842316 1.01211,-0.326164 0.58016,-0.902712 -1.05882,-1.413709 -1.32127,-0.411944 -1.73326,-0.37532 -2.89045,0.259074 -1.34518,0.737452 -1.34773,0.7374 -0.72842,-0.0438 0.7873,-0.993111 0.60737,-1.468585 -0.35006,-0.924748 -0.91131,0.517674 -1.65235,0.0012 -2.07674,-1.446338 -0.25821,-0.880796 -0.24903,-1.314753 0.38826,-1.28806 0.19914,0.0083 0.45975,0.06145 0.79252,0.160339 z m -0.58637,5.397017 c 0.042,0.01172 0.0764,0.0285 0.10158,0.05092 0.45715,0.407343 0.20462,1.262459 -0.39467,1.33674 -0.25054,0.03108 -3.27974,2.684394 -6.73158,5.896454 -3.45187,3.21207 -6.41768,5.88873 -6.59089,5.94775 -0.47461,0.16173 -0.91862,-0.87804 -0.68923,-1.61378 0.11096,-0.3564 2.06813,-2.42715 4.35002,-4.60247 2.28188,-2.1753 4.61597,-4.43313 5.18681,-5.01729 0.57087,-0.584157 1.1917,-1.015208 1.3782,-0.956609 0.18667,0.05822 0.96721,-0.213324 1.73492,-0.603219 0.58491,-0.296918 1.16726,-0.466962 1.50667,-0.458054 0.0566,0.0015 0.10613,0.0078 0.14809,0.01955 z m -107.24095,59.894824 c 0.68444,0.20254 1.16129,0.437 1.45071,0.63814 0.51454,0.3576 0.53681,0.47844 0.59166,0.79681 0.10972,0.63677 -0.4969,2.91163 -2.98061,5.50761 -0.81468,0.85151 -2.0344,1.70999 -3.16399,2.56829 -1.73569,-2.87739 -2.31353,-5.98721 -1.8768,-7.70269 0.23361,-0.91734 0.58871,-1.39849 1.08967,-1.73494 0.37573,-0.25234 0.92918,-0.48192 1.85257,-0.5069 0.30783,-0.008 0.6565,0.006 1.05374,0.0503 0.79293,0.0877 1.45071,0.22583 1.98305,0.38335 z"
             sodipodi:nodetypes="ssssssssssssssssssccssssssscssssssscccscsssssscccccsccccccccsccccsssssssscssssssssssssssssscssssscsssscccsscsccsssscssccssssssssssssssscsssccsssssscssccsssccss" />
          <path
             id="path3913"
             style="color:#000000;-inkscape-font-specification:'Bangers, Normal';fill:#f9f9f9;fill-opacity:1;stroke-width:1;-inkscape-stroke:none"
             d="m -257.61215,41.758342 c -0.37589,-0.104955 -0.76223,-0.191259 -1.15862,-0.259598 -0.95534,-0.164675 -1.95078,-0.241159 -2.98648,-0.230803 l 1.5e-4,-5.09e-4 c -1.03577,0.01029 -2.11203,0.106601 -3.22662,0.288669 -2.22854,0.364037 -4.35407,1.023301 -6.37126,1.97653 -1.98673,0.92852 -3.7352,2.163335 -5.2343,3.697202 -1.52891,1.564415 -2.49459,3.412029 -2.85151,5.482525 -0.22497,1.30506 -0.10111,2.580901 0.37497,3.769581 0.45014,1.123898 1.03529,2.173081 1.75401,3.142536 l 0.006,0.0059 0.004,0.0061 c 0.73944,0.952511 1.56128,1.879064 2.46266,2.777775 0.86989,0.867284 1.66292,1.720417 2.38269,2.558401 l 0.008,0.006 0.006,0.0081 c 0.69977,0.772486 1.24108,1.562581 1.63116,2.371036 l 0.007,0.01766 0.0102,0.01526 c 0.39978,0.724795 0.51761,1.407634 0.39059,2.144549 -0.0697,0.404056 -0.21795,0.707506 -0.4571,0.970848 l -0.006,0.0079 -0.006,0.0058 c -0.21687,0.251727 -0.50898,0.476307 -0.8981,0.668163 -0.39137,0.193006 -0.79769,0.315517 -1.23051,0.371107 -0.44799,0.0576 -0.85255,0.05156 -1.221,-0.01194 -0.41582,-0.0717 -0.92017,-0.256552 -1.49377,-0.562274 -0.55084,-0.34774 -1.1128,-0.750397 -1.68761,-1.212661 -0.52383,-0.444168 -0.95728,-0.950813 -1.38656,-1.453174 -1.65483,-1.93656 -1.84632,-2.094204 -3.57419,-4.100629 l -0.004,-0.005 -0.004,-0.0049 c -9.51299,-11.379418 -28.88302,-5.67789 -32.35046,7.709208 -1.45122,5.334733 -2.70855,12.33623 -0.80911,17.339572 l 0.006,0.01674 0.007,0.01604 c 1.30992,2.988009 3.2153,5.202417 5.58245,6.407509 2.36223,1.202588 5.15939,1.365836 8.11308,0.381377 4.34203,-1.324567 7.18807,-1.311579 9.69192,-0.368297 2.50025,0.941898 4.73465,2.886081 7.64003,5.583895 6.42456,7.19651 12.51669,10.34495 19.02448,10.4961 6.40531,0.14877 13.12097,-2.56264 21.01415,-6.78395 7.40299,5.8081 19.36346,7.97396 33.6222,0.16958 6.53142,-3.5749 12.04331,-6.638984 17.91302,-10.271374 5.86226,-3.627749 8.20371,-5.273179 8.20371,-5.273179 l 0.0323,-0.02252 2.87997,-2.551807 c 3.3862,-2.316021 3.78365,-2.784256 6.76734,-4.830062 1.38545,-0.950101 2.70592,-1.843269 3.82823,-2.591628 l 0.6098,-0.406299 -0.42822,-0.595078 -3.81482,-5.300495 -0.57086,0.395883 c -1.64908,1.145105 -3.85273,2.618647 -6.8216,4.637337 -2.49598,1.697129 -3.83945,2.348084 -5.97372,3.805543 l -2.57754,1.622397 -0.0141,0.01 c 0,0 -2.99263,2.093416 -11.8279,7.105673 -8.84843,5.019731 -10.3952,5.873806 -12.24089,6.88402 -10.39531,5.689719 -17.4592,5.053979 -22.20524,2.319199 0.92138,-0.706129 1.87505,-1.424609 2.65696,-2.241828 3.39578,-3.549311 5.78512,-7.622127 5.00613,-12.143688 -0.39874,-2.314329 -1.81536,-4.444169 -3.78916,-5.815942 -1.94512,-1.351808 -4.29784,-2.055645 -6.98411,-2.352804 -2.96659,-0.328149 -5.80709,0.211301 -8.04958,1.717442 -2.24401,1.50714 -3.65085,3.830784 -4.26248,6.233193 -1.07465,4.22136 -0.0423,8.778752 2.32209,12.915975 -7.79872,3.544212 -12.31989,5.237042 -15.96906,4.868722 -3.7683,-0.38032 -7.0042,-2.90343 -12.59521,-8.13988 l -0.003,-8.69e-4 -0.003,-8.68e-4 c -4.18333,-3.86695 -8.09733,-6.491934 -12.26419,-7.713197 -4.16688,-1.22128 -8.55596,-1.00904 -13.56916,0.687398 l -0.0188,0.0059 -0.0188,0.007 c -0.90785,0.364821 -1.41445,0.216996 -1.89564,-0.144668 -0.48066,-0.361238 -0.89117,-1.036402 -1.16155,-1.728731 -0.4159,-1.099082 -0.4666,-3.203947 -0.2204,-5.469537 0.2464,-2.267661 0.75362,-4.722138 1.28518,-6.675748 l 0.004,-0.0154 0.005,-0.01591 c 0.99968,-4.482012 3.96674,-6.178955 7.33938,-6.201252 3.37263,-0.0223 6.95171,1.94573 9.17974,4.694157 2.30964,2.849075 5.08667,4.923513 7.00058,6.491693 1.91391,1.568176 3.44342,2.271285 5.05153,2.548492 2.18978,0.377487 4.30227,0.384273 6.32426,0.01404 2.05231,-0.362569 3.90291,-1.066764 5.53335,-2.113244 1.66315,-1.037209 3.06257,-2.369311 4.18338,-3.980439 l 0.001,-0.0045 c 1.17519,-1.658525 1.95013,-3.587271 2.32425,-5.757629 l 0.0232,-0.128806 -0.008,-0.03723 c 0.32076,-1.950186 0.35374,-3.646826 0.0354,-5.080373 -0.27164,-1.443913 -0.72263,-2.707496 -1.36889,-3.773357 -0.63154,-1.041666 -1.38072,-1.932567 -2.24637,-2.659863 -0.74326,-0.690958 -1.43459,-1.353726 -2.07417,-1.988226 -0.61326,-0.608419 -1.10557,-1.226149 -1.48822,-1.849556 -0.29374,-0.525711 -0.39129,-1.119673 -0.25965,-1.883285 0.0747,-0.433466 0.24851,-0.793702 0.54875,-1.134435 0.33304,-0.377898 0.69348,-0.673683 1.08773,-0.896838 l 0.003,-0.0013 0.003,-0.0018 c 0.4732,-0.273494 0.90662,-0.473402 1.29664,-0.607492 0.41635,-0.123902 0.71658,-0.142076 0.83817,-0.121095 0.4404,0.0759 0.65398,0.236895 0.85355,0.650469 l 0.0138,0.02702 0.0131,0.02361 c 0.18958,0.322334 0.29086,0.995924 0.11339,2.025432 -0.0411,0.239219 -0.11114,0.473086 -0.21444,0.706756 l -0.0181,0.03945 -0.0143,0.04053 c -0.08,0.263036 -0.17702,0.521973 -0.29137,0.781045 l -0.49616,1.125219 10.17042,-1.134818 0.13458,-0.445258 c 0.17569,-0.578212 0.34523,-1.120301 0.50775,-1.623175 0.2095,-0.530951 0.36345,-1.075389 0.45879,-1.629032 0.22367,-1.297704 0.20103,-2.458661 -0.10366,-3.478613 -0.25521,-0.968465 -0.71135,-1.827653 -1.35731,-2.54245 -0.60604,-0.748652 -1.39015,-1.336568 -2.32393,-1.750329 -0.56653,-0.275542 -1.16431,-0.500976 -1.79085,-0.675757 z m -0.37278,1.362306 c 0.55099,0.153919 1.07066,0.351148 1.55995,0.590225 l 0.0118,0.0061 0.0135,0.0038 c 0.7624,0.336527 1.3553,0.787111 1.81677,1.361135 l 0.0131,0.0177 0.0159,0.01579 c 0.50098,0.54971 0.848,1.196645 1.0525,1.978169 l 0.004,0.01191 0.004,0.01352 c 0.227,0.752517 0.26235,1.697152 0.0644,2.845846 -0.0811,0.470415 -0.21325,0.932206 -0.39744,1.388065 l -0.009,0.02312 -0.007,0.02385 c -0.12073,0.373312 -0.24967,0.787114 -0.37704,1.199381 l -6.90219,0.771485 c 0.0969,-0.258588 0.19181,-0.517393 0.23835,-0.786989 0.20451,-1.186515 0.16911,-2.172697 -0.27775,-2.953254 -0.36778,-0.740521 -1.05586,-1.26643 -1.86887,-1.406572 -0.47146,-0.0813 -0.95171,-0.0018 -1.49619,0.162322 l -0.0119,0.0041 -0.0113,0.0038 c -0.49912,0.170183 -1.01743,0.413559 -1.55674,0.724796 -2.9e-4,0.001 -0.003,9.85e-4 -0.004,0.002 l -5.8e-4,0.002 c -0.53602,0.30432 -1.02129,0.703916 -1.44767,1.187758 -0.46075,0.522824 -0.76335,1.148615 -0.88079,1.829782 -0.17538,1.017521 -0.0434,1.992109 0.42182,2.820686 l 0.006,0.01135 0.006,0.01197 c 0.45138,0.739318 1.02458,1.448213 1.71284,2.131008 0.65958,0.654386 1.37133,1.337543 2.13485,2.046848 l 0.0114,0.01129 0.0137,0.01194 c 0.73849,0.620468 1.38762,1.384775 1.94766,2.308449 0.54303,0.895665 0.94459,1.997413 1.19096,3.314458 l 0.002,0.01188 0.004,0.0114 c 0.27421,1.226719 0.26647,2.801098 -0.0625,4.708954 -0.34292,1.989451 -1.03848,3.708382 -2.08583,5.185556 l -0.003,0.0018 -0.003,0.0018 c -1.01543,1.461205 -2.26818,2.653791 -3.77519,3.593635 l -0.004,0.0042 -0.004,0.002 c -1.46565,0.942012 -3.13252,1.579907 -5.02324,1.913912 l -0.004,5e-6 -0.003,0.0018 c -1.84861,0.338961 -3.7877,0.334912 -5.83221,-0.01757 -1.36005,-0.234438 -2.91001,-0.827984 -5.64335,-3.185859 -1.79893,-1.551749 -3.33859,-2.971392 -5.49821,-5.28587 -2.76141,-2.959394 -6.45502,-5.308302 -10.33675,-5.282631 -3.87965,0.0257 -7.58704,2.28926 -8.70808,7.30025 -0.54811,2.018591 -1.06494,4.513208 -1.32101,6.869719 -0.25697,2.365128 -0.28804,4.562718 0.30614,6.127866 l 0.002,0.0033 0.002,0.0028 c 0.32596,0.835731 0.81539,1.73457 1.63041,2.347185 0.81086,0.609436 1.98861,0.835882 3.25288,0.335026 4.80459,-1.622957 8.83501,-1.797628 12.70093,-0.664573 3.87072,1.134466 7.60772,3.609606 11.7021,7.394347 5.62034,5.263722 9.11276,8.076982 13.41583,8.511282 4.30397,0.43441 9.09644,-1.50091 17.40364,-5.29999 l 0.72693,-0.332702 -0.41894,-0.680544 c -2.50859,-4.077003 -3.56778,-8.538564 -2.55193,-12.528965 0.53743,-2.110829 1.76877,-4.124705 3.67978,-5.408193 1.91251,-1.284506 4.40556,-1.784826 7.10594,-1.486117 2.53362,0.28026 4.63739,0.93035 6.33258,2.108451 1.66648,1.158188 2.87621,2.996761 3.20323,4.895041 0.67257,3.903684 -1.38236,7.526452 -4.63528,10.926432 -0.86254,0.901489 -2.15274,1.798098 -3.34741,2.757896 l -0.75143,0.604031 0.80144,0.53519 c 5.18409,3.46226 13.21732,4.4444 24.54671,-1.756582 1.84826,-1.01163 3.40994,-1.874028 12.26001,-6.894698 8.76191,-4.970636 11.84217,-7.109344 11.9121,-7.158022 l 0.006,-0.0041 2.56783,-1.616565 0.0114,-0.008 c 2.08127,-1.423338 3.43065,-2.076231 5.99227,-3.817995 2.71431,-1.845562 4.64633,-3.143265 6.25682,-4.253157 l 2.58344,3.586828 c -0.99965,0.669869 -2.06619,1.387328 -3.23702,2.19025 -3.03838,2.083292 -3.39167,2.525629 -6.80935,4.860561 l -0.0368,0.02553 -2.8762,2.548043 c -0.0355,0.0249 -2.30761,1.620137 -8.10504,5.207756 -5.83544,3.611191 -11.321,6.660571 -17.84785,10.232961 -14.10246,7.71881 -25.49446,5.35597 -32.42192,-0.30591 l -0.36622,-0.29915 -0.41674,0.22426 c -8.00556,4.31298 -14.6301,6.96393 -20.71995,6.82248 -6.08991,-0.14143 -11.75541,-3.01163 -18.03625,-10.06038 l -0.0224,-0.0252 -0.0247,-0.0226 c -2.92536,-2.716722 -5.27658,-4.812408 -8.11515,-5.88178 -2.83857,-1.069369 -6.08961,-1.038311 -10.60325,0.338573 l -0.009,0.0029 -0.009,0.0027 c -2.66759,0.8933 -5.02421,0.731971 -7.04069,-0.294578 -2.0121,-1.024361 -3.70963,-2.945763 -4.92014,-5.698592 -1.65411,-4.379745 -0.56114,-11.23967 0.85787,-16.454828 l 10e-4,-0.004 0.001,-0.004 c 3.16663,-12.238433 21.42332,-17.862417 29.89508,-7.162568 1.59506,2.014568 3.44436,3.991764 4.60884,5.129348 1.16448,1.137585 1.79031,1.572792 2.40309,1.958095 l 0.0214,0.0136 0.0213,0.01198 c 0.67883,0.364213 1.32013,0.608074 1.93981,0.714889 0.52328,0.0902 1.07288,0.09475 1.64215,0.02155 0.58446,-0.0751 1.1455,-0.245486 1.67399,-0.506107 0.52769,-0.260204 0.98012,-0.594411 1.33627,-1.005609 0.41851,-0.463331 0.68975,-1.040868 0.79891,-1.67416 0.1798,-1.043103 -0.0142,-2.092932 -0.54329,-3.056696 -0.45447,-0.935389 -1.06955,-1.828915 -1.84166,-2.68125 -0.74275,-0.863963 -1.55701,-1.739397 -2.44536,-2.62511 -0.85958,-0.857011 -1.63833,-1.736562 -2.33777,-2.63696 -0.64471,-0.870871 -1.16968,-1.809761 -1.57438,-2.820147 -0.37982,-0.948348 -0.48004,-1.928859 -0.29511,-3.001707 0.30917,-1.793624 1.11791,-3.351929 2.46902,-4.734378 1.38055,-1.412592 2.98528,-2.546469 4.82606,-3.40658 l 0.003,2.15e-4 c 1.89809,-0.896936 3.89434,-1.515789 5.99621,-1.859139 2.10127,-0.343241 4.01331,-0.36118 5.74387,-0.06288 l 2.9e-4,-10e-4 c 0.35363,0.06096 0.69555,0.138159 1.02616,0.230532 z m 19.03025,41.772574 c -0.55474,-0.156909 -1.21714,-0.290194 -1.99629,-0.376366 -0.42597,-0.0475 -0.80681,-0.06345 -1.1498,-0.05455 l -1.4e-4,5.09e-4 c -1.03283,0.0279 -1.74949,0.30572 -2.22722,0.626561 -0.63158,0.42417 -1.11974,1.121331 -1.38102,2.147429 -0.52392,2.05793 0.14034,5.231331 1.95654,8.242201 l 0.40689,0.673893 0.62647,-0.476237 c 1.11519,-0.84736 2.35312,-1.707646 3.24738,-2.642356 1.2933,-1.351752 2.11028,-2.631797 2.59401,-3.681288 0.48375,-1.049481 0.68783,-1.762849 0.57201,-2.434948 -0.0276,-0.160191 -0.07,-0.414472 -0.23223,-0.657006 -0.16228,-0.242558 -0.36839,-0.402878 -0.65239,-0.600259 -0.37682,-0.261877 -0.91237,-0.516244 -1.6535,-0.735555 v 0 c -0.036,-0.01078 -0.0727,-0.02123 -0.10972,-0.03175 z m -0.38669,1.359959 c 0.0315,0.0089 0.0623,0.0179 0.0928,0.02694 l 0.003,7.23e-4 c 0.62776,0.18576 1.04592,0.400333 1.24793,0.540725 0.18074,0.125605 0.2571,0.200387 0.27783,0.220833 0.001,0.0105 0.007,0.03885 0.0204,0.115388 -0.006,-0.03528 -0.0499,0.707033 -0.46273,1.603202 -0.41303,0.896136 -1.14145,2.051711 -2.33186,3.295939 -0.58732,0.613871 -1.48403,1.289597 -2.3997,1.977588 -1.33313,-2.54284 -1.76419,-5.193532 -1.44459,-6.448893 0.20597,-0.808559 0.42792,-1.073708 0.79828,-1.322439 0.27356,-0.18372 0.66386,-0.364826 1.47682,-0.387026 l 1.5e-4,-5.09e-4 c 0.27227,-0.007 0.58813,0.005 0.95605,0.0462 0.70761,0.07828 1.29441,0.197968 1.76726,0.331662 z"
             sodipodi:nodetypes="ssccscssscccsccccccscccsssccsccsccccscscscsscccscccccscccsscsssssscscccscccscscccsscsccccccccscscssccccscccsccccccccscccsscccccccccscccccscsccssccsscccscccscccscccccccccscsscscccscscscccssssssccsssccccsccccccsscccssccscccscsccsscccssscsccscsssccsccsscscsscccssssssssssssccssccscccscccs" />
          <path
             id="path1920"
             style="fill:#333333;stroke:#f9f9f9;stroke-width:0.324562"
             d="m -109.09151,3.9773224 c -0.0659,-0.01659 -0.12885,-0.02694 -0.18651,-0.02993 -0.15372,-0.008 -0.26937,0.03673 -0.30602,0.154211 -0.14915,0.478404 0.73446,1.46256 1.17757,1.311547 0.1988,-0.06764 0.36768,-0.313606 0.37467,-0.54676 0.011,-0.350348 -0.59832,-0.772927 -1.05971,-0.889068 z" />
          <path
             style="fill:#000000;stroke-width:0.324563"
             d="m -105.82548,46.605396 c -0.56527,0.4943 -0.97599,0.52715 -2.12239,0.16971 -1.36468,-0.42552 -1.42476,-0.40814 -1.50315,0.43326 -0.0741,0.79503 -0.21916,0.87917 -1.56243,0.9058 -1.25997,0.025 -1.92473,0.35823 -4.4581,2.23483 -1.63753,1.21302 -3.2085,2.5118 -3.49103,2.88622 -0.79086,1.04802 -1.4342,0.92529 -2.23555,-0.42644 -1.31182,-2.21277 -1.16729,-2.73507 1.42674,-5.15617 1.25124,-1.16783 2.33842,-2.32678 2.41596,-2.57547 0.0844,-0.27068 -0.17939,-0.55202 -0.65724,-0.70101 -0.43899,-0.1369 -0.87818,-0.42118 -0.97593,-0.63179 -0.0978,-0.21063 -1.73342,-1.93929 -3.63478,-3.84149 -1.90135,-1.90221 -4.0689,-4.43039 -4.81676,-5.61819 -0.74785,-1.18781 -1.90185,-2.98869 -2.56443,-4.00197 -1.31164,-2.00586 -1.58129,-2.7641 -0.99819,-2.8067 0.56853,-0.0416 0.79144,-1.121522 0.39917,-1.934072 -0.45552,-0.94362 -0.58883,-0.96305 -1.90468,-0.27766 -0.61282,0.31921 -1.83878,0.70323 -2.72434,0.85341 -1.55641,0.26393 -1.81822,0.44839 -4.36274,3.073902 -1.08041,1.11479 -2.58416,2.24323 -2.68178,2.01243 -0.0474,-0.11196 0.70698,-1.02462 1.67637,-2.02804 0.96938,-1.00344 2.75071,-2.846612 3.95852,-4.095962 1.59586,-1.65074 2.166,-2.43237 2.0862,-2.86005 -0.2414,-1.29359 -0.93156,-1.08019 -2.79188,0.86325 -1.83926,1.92144 -2.956,2.92724 -7.46873,6.726712 -1.28649,1.08316 -2.63105,2.23555 -2.98791,2.56086 -4.0006,3.64697 -5.73113,4.99465 -6.2184,4.84273 -0.67154,-0.20935 -0.66222,-0.23842 0.78849,-2.46144 1.49357,-2.28861 2.61062,-3.42979 14.45831,-14.770612 0.73563,-0.70417 1.75721,-1.7235 2.27016,-2.26519 0.51295,-0.54168 0.99594,-0.9622 1.0733,-0.93447 0.0772,0.0283 0.44925,1.22409 0.82639,2.65858 0.67125,2.5531 1.51708,3.67187 1.64378,2.17424 0.0487,-0.57525 0.13364,-0.62715 0.43784,-0.26733 0.81031,0.95855 4.17713,8.711222 4.92857,10.013982 0.75144,1.30278 1.59937,1.51491 3.45199,2.02035 1.85263,0.50544 5.84911,2.05404 6.44896,1.20719 0.44511,-0.62841 -0.21058,-2.24543 -1.40259,-3.45896 -0.96886,-0.98639 -2.59031,-4.258962 -2.40486,-4.853782 0.19386,-0.62174 0.72876,-0.11946 1.53422,1.440592 0.62441,1.20943 0.87012,1.4561 1.06775,1.07195 0.14168,-0.27543 0.54533,-0.40896 0.90097,-0.29808 0.90633,0.28262 1.16789,0.0189 0.93884,-0.94663 -0.10888,-0.458942 -0.0979,-1.155292 0.0243,-1.547422 0.13393,-0.42958 -0.008,-0.9487 -0.35823,-1.30598 -0.61025,-0.62339 -1.15411,-2.53209 -0.7878,-2.76488 0.11781,-0.0748 0.77594,0.46216 1.46258,1.19336 1.1135,1.1858 1.33087,1.29878 2.01131,1.04536 0.6873,-0.25597 0.9243,-0.11202 2.39196,1.45275 2.17218,2.315922 3.52824,4.219522 3.22346,4.525022 -0.13655,0.13691 -0.56019,-0.0954 -0.94135,-0.5162 -1.16209,-1.28298 -2.00671,-0.49094 -1.12306,1.05314 0.46912,0.81973 0.45539,0.92822 -0.23146,1.82866 -0.40159,0.52648 -1.04203,1.40678 -1.42322,1.95622 -0.86943,1.25324 -1.78931,1.54541 -2.44357,0.77608 -0.78873,-0.92742 -1.92799,-0.74524 -2.27371,0.36362 -0.25386,0.81434 -0.0505,1.29641 1.4435,3.42179 2.1512,3.06026 2.92167,3.74132 3.92773,3.47197 0.60876,-0.16297 0.78208,-0.4153 0.94199,-1.37141 0.17343,-1.03685 0.48741,-1.40166 2.72766,-3.16988 1.98442,-1.56626 2.58877,-1.89186 2.79587,-1.50638 0.14533,0.27048 0.50787,1.80669 0.80567,3.41379 0.61732,3.33146 0.29244,5.66564 -0.93834,6.74189 z m 6.647616,-22.593292 c -0.15675,-0.049 -0.3171,-0.26516 -0.35624,-0.4806 -0.0392,-0.21544 0.0571,-0.35171 0.21392,-0.30283 0.15674,0.049 0.3171,0.26516 0.35624,0.48061 0.0392,0.21544 -0.0571,0.35171 -0.21392,0.30282 z m -14.766976,15.719862 c -0.79481,-0.24778 -1.18308,-1.24887 -0.73159,-1.88626 0.51402,-0.72567 1.03884,-0.32555 1.22483,0.93381 0.16909,1.14501 0.16288,1.15703 -0.49324,0.95245 z m -1.32036,-2.42887 c -0.52117,0.17762 -0.63991,-0.25376 -0.22942,-0.83326 0.18939,-0.26745 0.4442,-0.35165 0.56616,-0.18713 0.28876,0.38956 0.13346,0.86016 -0.33676,1.0204 z m -3.63276,-17.394172 c -0.54199,0.78009 -1.16087,1.0763 -2.45385,1.17445 -1.24203,0.0943 -2.49655,-0.70674 -2.38142,-1.52044 0.11002,-0.77756 0.72611,-0.57072 0.95568,0.32078 0.16524,0.64181 0.2332,0.63199 0.82923,-0.11984 0.3747,-0.47266 0.98715,-0.80896 1.44839,-0.79532 0.43954,0.013 1.07437,-0.12484 1.41075,-0.30629 0.75357,-0.40653 0.85957,0.2847 0.19124,1.24661 z m -5.48548,8.928202 c -0.56743,0.36063 -1.70846,-0.33486 -3.14379,-1.916212 -1.53066,-1.68635 -1.63252,-2.36133 -0.42041,-2.78574 0.49,-0.17157 0.87441,0.0788 1.85461,1.20808 1.31341,1.51309 2.1467,3.216082 1.70959,3.493872 z m -1.42793,-7.334592 c -1.0005,-0.39623 -1.85986,-0.81694 -1.90972,-0.93481 -0.15681,-0.37068 1.12674,-1.7779 1.51206,-1.65776 0.37944,0.11832 2.35582,2.86691 2.2668,3.15248 -0.0275,0.0883 -0.86866,-0.16364 -1.86913,-0.55994 z m 1.95042,-3.43096 c -0.29235,0.43007 -1.11672,0.28946 -0.97464,-0.16625 0.13759,-0.44121 1.13545,-0.88148 1.18813,-0.52419 0.0251,0.17011 -0.0711,0.48079 -0.21321,0.69052 z m -24.17651,51.606482 c -2.46294,-0.38258 -2.91806,-0.53959 -3.31049,-1.14211 -0.71084,-1.09143 -1.1494,-1.06663 -1.30373,0.0737 -0.19036,1.40637 -0.84457,1.61783 -3.38806,1.09509 l -2.18212,-0.44846 -1.14163,-2.83278 c -1.31869,-3.27218 -1.41114,-3.69582 -0.94888,-4.34844 0.55505,-0.78359 0.85766,-0.43994 2.20409,2.50307 l 1.28168,2.80153 1.70508,0.53161 c 0.93782,0.29236 1.73063,0.4497 1.76185,0.34958 0.0308,-0.10027 -0.0856,-0.72366 -0.25948,-1.38563 -0.31385,-1.19442 -0.30939,-1.21127 0.58446,-2.21024 1.23437,-1.3795 1.59073,-1.51205 3.30586,-1.22961 3.59071,0.59131 5.71631,2.93547 4.93477,5.44218 l -0.38787,1.24412 z m 3.17885,-10.84478 c -1.59217,0.57554 -3.03635,0.92035 -3.2093,0.76623 -0.44671,-0.39805 1.2315,-5.71974 2.01908,-6.40268 0.55562,-0.48178 0.66466,-0.41075 2.40477,1.56668 1.00251,1.13924 1.79069,2.28553 1.75152,2.54732 -0.0392,0.26179 -1.37393,0.9469 -2.96609,1.52245 z m -6.95052,13.94521 c -0.29063,0.0361 -0.97142,-0.0726 -1.51287,-0.2414 -0.90515,-0.28218 -0.94177,-0.35489 -0.45479,-0.90171 0.41221,-0.46286 0.75063,-0.50077 1.52584,-0.17093 1.06287,0.45216 1.31617,1.20558 0.44182,1.31404 z m 2.89443,-13.81922 c -0.18291,0.0623 -0.75114,-0.65114 -1.26274,-1.58549 -1.0037,-1.83304 -3.83541,-8.61478 -4.35711,-10.43495 l -0.31986,-1.11591 0.85417,0.26628 c 2.24187,0.69897 3.4426,1.8728 4.49313,4.39241 0.56309,1.35054 1.0251,3.08976 1.02669,3.86491 0.007,3.2468 -0.11156,4.50275 -0.43427,4.61273 z m -5.63875,15.55626 c -0.95837,0.11887 -1.89868,-0.34903 -1.73787,-0.86479 0.17397,-0.5579 1.51253,-0.65408 2.07895,-0.14936 0.47943,0.42722 0.30915,0.93351 -0.34109,1.01414 z m -2.46339,1.7966 c -0.14302,0.0909 -0.63419,0.0486 -1.0915,-0.094 -1.13498,-0.35388 -0.62004,-1.08192 0.60243,-0.85178 0.87797,0.16529 1.08554,0.56667 0.48907,0.94575 z m 0.7193,-4.39704 c -0.32623,0.0807 -1.48168,-0.0312 -2.56767,-0.24865 l -1.97453,-0.39544 -1.11871,-3.01249 c -1.11683,-3.00742 -1.13057,-4.34993 -0.0436,-4.26176 0.27282,0.0221 1.09655,1.31102 1.84035,2.87956 1.34537,2.83714 1.34789,2.83993 3.05572,3.37241 1.31102,0.40876 1.67341,0.64785 1.55543,1.02624 -0.0846,0.27133 -0.42072,0.55939 -0.74695,0.64013 z m 12.12876,-38.65022 c -0.31145,0.15951 -0.5119,0.13702 -0.45333,-0.0508 0.0581,-0.1851 0.35625,-0.46547 0.66334,-0.62274 0.31145,-0.1595 0.51189,-0.13702 0.45331,0.0508 -0.0581,0.18509 -0.35624,0.46546 -0.66332,0.62273 z m -2.38366,6.94297 c -0.25745,0.16362 -0.60564,0.2546 -0.77373,0.2022 -0.52931,-0.16506 -1.79354,-2.80264 -1.6161,-3.37175 0.30577,-0.98066 2.10558,-2.38287 2.78866,-2.17258 0.53252,0.16398 0.5856,0.38505 0.31096,1.29539 -0.18199,0.60379 -0.26596,1.53375 -0.18627,2.0667 0.17956,1.20097 0.074,1.6003 -0.5235,1.98004 z m -12.14787,33.73028 c -0.27092,0.0336 -1.45559,-0.13901 -2.6326,-0.38359 l -2.14004,-0.44469 -0.91203,-2.90221 c -0.67142,-2.1365 -0.81028,-3.06283 -0.52634,-3.51102 0.21217,-0.33485 0.52712,-0.56475 0.69999,-0.51084 0.17292,0.0538 0.87828,1.3691 1.56758,2.92268 l 1.25329,2.82468 1.66837,0.39579 c 1.35686,0.32185 1.65401,0.50333 1.59137,0.97193 -0.0423,0.3169 -0.29864,0.60367 -0.56959,0.63727 z m -2.34051,1.6428 c -0.25064,0.12029 -1.32762,0.0439 -2.39326,-0.16973 l -1.93755,-0.38844 -1.10488,-2.64426 c -1.11116,-2.65928 -1.17446,-3.7717 -0.22137,-3.88992 0.34775,-0.0431 0.87921,0.78651 1.63615,2.55412 1.10795,2.58731 1.14001,2.62391 2.73574,3.12144 1.64282,0.51216 2.10603,1.02286 1.28517,1.41679 z m -0.21199,-15.52122 c -0.41745,0.2138 -0.66737,-0.0151 -1.22024,-1.11744 -1.05265,-2.09898 -1.39103,-3.73832 -0.81231,-3.93555 0.60846,-0.20735 1.25179,0.53985 2.11161,2.45236 0.74949,1.66709 0.73377,2.18436 -0.0791,2.60063 z m -1.8111,2.5422 c -0.63879,0.40596 -1.2699,-0.28191 -2.02344,-2.20551 -0.44694,-1.14087 -0.76195,-2.2368 -0.70003,-2.4354 0.0619,-0.1986 0.51253,-0.2364 1.00134,-0.084 1.42191,0.44336 2.74544,4.07455 1.72213,4.72491 z m -2.69843,2.18952 c -0.52476,0.0297 -0.8671,-0.41304 -1.56026,-2.01816 -0.48839,-1.13089 -0.85167,-2.17266 -0.80728,-2.31502 0.0448,-0.14219 0.43262,-0.2539 0.86275,-0.24789 0.6086,0.008 0.98024,0.37426 1.67546,1.64865 0.96447,1.76806 0.90023,2.87184 -0.17067,2.93242 z m -1.98743,1.99532 c -0.56604,0.48501 -0.64493,0.4014 -1.5191,-1.60965 -0.50712,-1.16668 -0.8612,-2.31636 -0.78684,-2.55486 0.22335,-0.71633 1.31886,-0.12695 2.04698,1.10125 0.93568,1.57829 1.00703,2.42231 0.25896,3.06326 z m -24.15043,20.60538 c -2.2127,1.64805 -3.05481,2.09615 -3.61257,1.92224 -0.40002,-0.12467 -0.66101,-0.25126 -0.58,-0.28119 0.0809,-0.03 1.75489,-1.0347 3.71973,-2.23286 1.96484,-1.19815 3.52423,-2.03869 3.46529,-1.86785 -0.0584,0.17101 -1.40553,1.27766 -2.99244,2.45962 z"
             id="path2703"
             sodipodi:nodetypes="ssssssssssssssssssssssssscsssscssszzsssssssssssssscssssssssssssssssssssssssssssssssssssssssssssssscssccsssscssscsssssscsssssssssssssssscsssscssccsssssscsssssssssssssssccssssscsssscssssscssssssssssssssssssssssssssssssss" />
          <path
             d="m -259.84048,84.343406 q 2.77482,-7.44131 5.44586,-14.61356 1.03959,-3.03456 2.22907,-6.27284 1.19908,-3.29401 2.32322,-6.48616 1.12414,-3.19215 2.15412,-6.17098 1.03958,-3.03456 1.87163,-5.531 l 9.13435,0.94328 q -1.61994,3.73795 -3.29753,7.8103 -1.62185,4.08197 -3.09381,7.96022 l 5.6232,0.33803 q 1.46235,-3.82251 2.70947,-7.39519 1.25673,-3.6284 2.94201,-7.41248 1.32028,-0.002 2.90001,0.15557 1.58933,0.10179 2.94613,0.22089 1.35679,0.1191 2.25812,0.21709 0.96667,0.0519 0.96667,0.0519 -1.21257,2.37346 -2.45587,5.25813 -1.17797,2.83854 -2.40396,5.95575 -1.2164,3.06147 -2.39627,6.24401 -1.17987,3.18254 -2.19064,6.04991 -2.4462,6.86667 -4.78285,14.09657 l -8.8672,-0.49551 q 1.30094,-3.21906 2.40586,-6.29974 1.01846,-2.57909 2.07535,-5.38111 1.11263,-2.79242 1.80248,-4.79688 l -5.49252,-0.43029 q -0.75519,2.05059 -1.79287,4.74114 -0.98194,2.70017 -1.86012,5.13128 -1.13183,2.90387 -2.26367,5.80776 z"
             id="path19148"
             style="font-size:56.5545px;line-height:1.25;font-family:Bangers;-inkscape-font-specification:'Bangers, Normal';letter-spacing:2.76754px;fill:#333333;stroke:#f9f9f9;stroke-width:1.414;stroke-miterlimit:4;stroke-dasharray:none" />
          <path
             d="m -212.26007,91.282626 q -1.43174,-0.0172 -3.15175,-0.0268 -1.72001,-0.01 -3.09602,-0.0172 0.53996,-1.80075 1.07032,-3.54576 0.43619,-1.53169 0.81665,-3.07298 0.4362,-1.5317 0.7398,-2.62714 l -4.84873,-0.83581 -3.61271,7.64121 q -1.25494,-0.0442 -2.96534,-0.10943 -1.7008,-0.12102 -3.17867,-0.2036 -1.82187,-0.0845 -3.58801,-0.15939 3.50704,-7.02814 6.91991,-13.84297 1.4105,-2.85584 2.92477,-5.98074 1.57,-3.1153 3.07466,-6.18447 1.57,-3.11529 2.9805,-5.97114 1.4105,-2.85584 2.5116,-5.24852 3.83785,0.37461 7.80638,0.65697 4.02426,0.29197 7.87363,0.26686 -0.47463,1.75461 -1.1587,4.39135 -0.61872,2.59061 -1.32391,5.68281 -0.7052,3.0922 -1.45842,6.46307 -0.75322,3.37086 -1.48724,6.63026 -1.60443,7.64306 -3.42791,16.22395 -1.72001,-0.01 -3.42081,-0.13055 z m -6.17145,-15.46835 q 0.22293,0.0384 0.78026,0.1345 0.62265,0.05 1.23571,0.15567 0.67841,0.0595 1.23573,0.15558 0.56694,0.0403 0.79947,0.023 0.0576,-0.33439 0.24787,-1.10504 0.25557,-0.81677 0.48423,-1.81036 0.294,-1.0397 0.61682,-2.2466 0.32282,-1.2069 0.63603,-2.35807 0.71289,-2.80393 1.61409,-6.03451 l 1.17021,-4.79109 -0.8456,-0.0883 -2.10806,4.57204 z"
             id="path19150"
             style="font-size:56.5545px;line-height:1.25;font-family:Bangers;-inkscape-font-specification:'Bangers, Normal';letter-spacing:2.76754px;fill:#333333;stroke:#f9f9f9;stroke-width:1.41387" />
          <path
             d="m -207.71668,92.869236 q 3.72997,-6.98971 7.18897,-13.7392 1.46623,-2.84624 3.03623,-5.96153 1.57,-3.11529 3.13039,-6.17486 1.56039,-3.05956 2.91516,-5.92501 1.4105,-2.85585 2.52121,-5.30426 3.06529,0.52838 5.85383,0.66473 2.78853,0.13635 6.01333,0.40528 -0.37855,1.1973 -0.87048,2.71939 -0.42659,1.47595 -0.99346,3.09989 -0.51114,1.63355 -1.09723,3.36895 -0.58608,1.73542 -1.45656,4.45479 -0.87048,2.71938 -2.2598,6.78404 l 0.72452,0.12489 q 2.34638,-3.95707 3.88565,-6.56116 1.54887,-2.65983 2.5251,-4.32799 0.97621,-1.66816 1.9332,-3.22485 1.02234,-1.60281 1.89479,-3.00192 0.9378,-1.44522 1.69686,-2.51954 1.41253,0.12871 2.66747,0.17286 1.25493,0.0442 2.50987,0.0883 1.26455,-0.0116 2.51949,0.0326 1.32027,-0.002 2.87308,-0.0212 -1.11452,3.13642 -2.20215,6.44965 -1.08761,3.31322 -2.06377,6.64566 -0.96656,3.2767 -1.9235,6.49767 -0.9012,3.23058 -1.68904,6.13637 -1.86006,6.79556 -3.49528,13.28553 l -9.99527,0.0561 q 0.048,-0.27867 0.31507,-1.49519 0.32282,-1.20689 0.74171,-2.97112 0.47461,-1.75462 1.07222,-3.88976 0.65333,-2.12553 1.25094,-4.26068 0.65333,-2.12553 1.27786,-4.08387 0.63411,-2.01406 1.16256,-3.41508 l -0.50159,-0.0865 q -1.18375,2.20627 -2.58274,4.66238 -1.38938,2.40038 -2.8537,4.90261 -1.40858,2.51185 -2.79796,4.91223 -1.38938,2.40037 -2.5174,4.61624 -1.96025,-0.28046 -3.37277,-0.40921 -1.40293,-0.1844 -3.26131,-0.39002 l 5.34765,-20.36935 -0.83599,-0.1441 q -0.23636,0.70531 -0.98004,2.35616 -0.73407,1.59512 -1.73141,3.71874 -0.932,2.07751 -2.01389,4.35872 -1.07228,2.22548 -2.0408,4.18191 -0.90318,1.9103 -1.52387,3.18064 -0.61109,1.21459 -0.69565,1.37218 z"
             id="path19152"
             style="font-size:56.5545px;line-height:1.25;font-family:Bangers;-inkscape-font-specification:'Bangers, Normal';letter-spacing:2.76754px;fill:#333333;stroke:#f9f9f9;stroke-width:1.41387" />
          <path
             d="m -168.44036,100.0413 14.13155,-38.367324 17.87088,1.53103 q -0.60148,1.15887 -1.10111,2.39268 -0.4612,1.01088 -0.9416,2.13324 -0.41508,1.07622 -0.73598,1.93912 -0.56693,-0.0404 -1.63546,-0.16714 -1.00319,-0.17293 -2.18319,-0.3189 -1.17038,-0.20174 -2.39649,-0.4131 -1.17039,-0.20175 -2.06211,-0.35546 l -3.6703,9.63989 q 1.74692,0.18635 3.26131,0.39 1.23571,0.15568 2.51757,0.37664 1.28184,0.22096 1.90452,0.27086 -0.49193,1.52208 -0.97425,2.98842 -0.42658,1.47596 -0.97424,2.98844 -0.56695,-0.0403 -1.85839,-0.20556 -1.22612,-0.21136 -2.51756,-0.37664 -1.45866,-0.19401 -3.19597,-0.43613 l -3.6626,9.92815 8.35791,0.12078 -1.65252,6.257434 z"
             id="path19154"
             style="font-size:56.5545px;line-height:1.25;font-family:Bangers;-inkscape-font-specification:'Bangers, Normal';letter-spacing:2.76754px;fill:#333333;stroke:#f9f9f9;stroke-width:1.41387" />
          <path
             d="m -131.4549,104.52292 q -1.72771,-0.29782 -3.69757,-0.5226 -1.91411,-0.21518 -3.90318,-0.32849 -1.98907,-0.11332 -3.95123,-0.0498 -1.89681,0.0174 -3.48805,0.25957 0.7667,-2.45032 1.74095,-5.438754 0.97425,-2.98844 2.09838,-6.18059 1.17988,-3.18254 2.31363,-6.43043 1.18948,-3.23827 2.33092,-6.19789 2.65183,-7.06079 5.51889,-14.37142 l 9.97416,0.39939 q -2.61919,6.20558 -5.06928,12.09599 -1.06458,2.51375 -2.1676,5.25044 -1.09341,2.68094 -2.11188,5.26004 -1.01845,2.57908 -1.89663,5.0102 -0.87817,2.43111 -1.49309,4.33371 1.41254,0.12871 2.97304,0.39771 1.62586,0.22282 2.85198,0.43418 -0.12676,1.06853 -0.19786,2.146654 -0.0615,1.0224 -0.0941,1.87761 0.0231,0.86481 -0.0365,1.5432 0.006,0.63228 0.0231,0.86482 -0.44587,-0.0769 -0.89173,-0.15372 -0.38053,-0.12293 -0.82638,-0.19978 z"
             id="path19156"
             style="font-size:56.5545px;line-height:1.25;font-family:Bangers;-inkscape-font-specification:'Bangers, Normal';letter-spacing:2.76754px;fill:#333333;stroke:#f9f9f9;stroke-width:1.41387" />
          <path
             d="m -127.14982,107.15884 14.13155,-38.367324 17.870866,1.53102 q -0.60148,1.15887 -1.1011,2.39269 -0.4612,1.01088 -0.9416,2.13324 -0.41508,1.07622 -0.73599,1.93911 -0.56692,-0.0404 -1.63546,-0.16713 -1.003176,-0.17293 -2.183176,-0.3189 -1.17039,-0.20175 -2.3965,-0.4131 -1.17038,-0.20175 -2.0621,-0.35546 l -3.6703,9.63989 q 1.74692,0.18635 3.26131,0.39 1.23571,0.15567 2.51756,0.37664 1.28186,0.22096 1.90453,0.27086 -0.49193,1.52207 -0.97425,2.98842 -0.42658,1.47596 -0.97424,2.98844 -0.56695,-0.0403 -1.85839,-0.20556 -1.22612,-0.21136 -2.51757,-0.37664 -1.45865,-0.19401 -3.19596,-0.43613 l -3.66261,9.928154 8.35792,0.12078 -1.65252,6.25743 z"
             id="path19158"
             style="font-size:56.5545px;line-height:1.25;font-family:Bangers;-inkscape-font-specification:'Bangers, Normal';letter-spacing:2.76754px;fill:#333333;stroke:#f9f9f9;stroke-width:1.41387" />
          <path
             d="m -78.791534,101.26233 q -0.53799,3.12102 -2.20603,5.47336 -1.60271,2.30622 -3.98183,3.78993 -2.32341,1.49333 -5.28296,2.01616 -2.90382,0.53244 -6.08058,-0.0152 -2.22931,-0.38428 -4.256856,-1.93894 -2.01795,-1.61039 -3.62852,-4.58529 l 5.517226,-7.370304 q 0.26523,0.79177 0.91099,1.706524 0.65537,0.85903 1.50674,1.57968 0.90713,0.73025 1.78733,1.28369 0.94554,0.50732 1.7258,0.64182 0.66879,0.11529 1.43174,0.0172 0.76295,-0.098 1.45287,-0.43822 0.68991,-0.34019 1.12037,-0.83987 0.4958,-0.54581 0.6303,-1.32606 0.23057,-1.337584 -0.46901,-2.605954 -0.63424,-1.31449 -1.74316,-2.53864 -1.09931,-1.27987 -2.42156,-2.59818 -1.32225,-1.31831 -2.40235,-2.70966 -1.02437,-1.38173 -1.6663,-2.98449 -0.64194,-1.60276 -0.33452,-3.3862 0.49957,-2.8981 2.65959,-5.10824 2.16003,-2.21015 5.03114,-3.55167 2.93647,-1.38764 6.18429,-1.91818 3.24782,-0.53052 5.97872,-0.0598 1.50477,0.25939 2.77511,0.88008 1.27994,0.56496 2.08329,1.56427 0.86869,0.95318 1.21465,2.27537 0.40171,1.33179 0.0847,3.17097 -0.1345,0.78025 -0.43619,1.53169 -0.24597,0.76104 -0.51115,1.63354 l -8.48471,0.94776 q 0.18833,-0.42665 0.32091,-0.8629 0.18832,-0.42665 0.26518,-0.87251 0.28821,-1.67198 -0.19996,-2.50218 -0.42283,-0.87632 -1.37028,-1.03964 -0.44586,-0.0769 -1.17229,0.14226 -0.6707,0.22871 -1.43557,0.67075 -0.69951,0.39592 -1.27027,1.04359 -0.57075,0.64767 -0.71486,1.48365 -0.23056,1.33758 0.34025,2.35419 0.62654,1.02623 1.60669,1.99862 0.98015,0.97239 2.1179,2.02934 1.20309,1.01083 2.09678,2.48482 0.89369,1.47399 1.28196,3.54952 0.45362,2.0294 -0.0556,4.983234 z"
             id="path19160"
             style="font-size:56.5545px;line-height:1.25;font-family:Bangers;-inkscape-font-specification:'Bangers, Normal';letter-spacing:2.76754px;fill:#333333;stroke:#f9f9f9;stroke-width:1.41387" />
          <path
             d="m -52.099304,105.86345 q -0.53799,3.12102 -2.20603,5.47337 -1.6027,2.30621 -3.98184,3.78993 -2.3234,1.49332 -5.28296,2.01616 -2.90382,0.53244 -6.08056,-0.0152 -2.22931,-0.38428 -4.25686,-1.93894 -2.01795,-1.6104 -3.62853,-4.58529 l 5.51722,-7.3703 q 0.26524,0.79177 0.911,1.70652 0.65537,0.85902 1.50675,1.57967 0.90712,0.73025 1.78732,1.2837 0.94554,0.50732 1.7258,0.64182 0.66879,0.11528 1.43174,0.0172 0.76295,-0.098 1.45287,-0.43822 0.68991,-0.34018 1.12037,-0.83986 0.49581,-0.54581 0.63031,-1.32606 0.23057,-1.33759 -0.46902,-2.60595 -0.63423,-1.31449 -1.74316,-2.53864 -1.09931,-1.279874 -2.42156,-2.598194 -1.32224,-1.3183 -2.40235,-2.70965 -1.02437,-1.38173 -1.66631,-2.98449 -0.64193,-1.60277 -0.33451,-3.3862 0.49957,-2.8981 2.65959,-5.10825 2.16003,-2.21014 5.03115,-3.55167 2.93646,-1.38763 6.18428,-1.91817 3.24782,-0.53053 5.97872,-0.0598 1.50477,0.25938 2.77511,0.88008 1.27994,0.56496 2.08329,1.56427 0.86869,0.95318 1.21465,2.27536 0.40171,1.3318 0.0847,3.17097 -0.1345,0.78025 -0.43619,1.5317 -0.24597,0.76103 -0.51115,1.63354 l -8.48471,0.94775 q 0.18833,-0.42665 0.32091,-0.8629 0.18832,-0.42665 0.26518,-0.8725 0.28821,-1.67198 -0.19996,-2.50218 -0.42282,-0.87633 -1.37028,-1.03965 -0.44586,-0.0769 -1.17229,0.14226 -0.6707,0.22871 -1.43556,0.67076 -0.69952,0.39592 -1.27028,1.04358 -0.57075,0.64767 -0.71486,1.48365 -0.23057,1.33759 0.34025,2.3542 0.62655,1.02622 1.6067,1.99862 0.98015,0.97239 2.11789,2.02934 1.20309,1.01082 2.09678,2.48482 0.89369,1.47398 1.28197,3.549514 0.45361,2.02941 -0.0556,4.98323 z"
             id="path19162"
             style="font-size:56.5545px;line-height:1.25;font-family:Bangers;-inkscape-font-specification:'Bangers, Normal';letter-spacing:2.76754px;fill:#333333;stroke:#f9f9f9;stroke-width:1.41387" />
        </g>
      </g>
      <g
         aria-label=" "
         transform="rotate(-15.872584)"
         id="text962"
         style="font-size:4.55938px;line-height:1.25;stroke-width:0.113985" />
    </g>
  </g>
</svg>
